<?xml version="1.0" encoding="UTF-8" standalone="no"?>
<!DOCTYPE svg PUBLIC "-//W3C//DTD SVG 1.1//EN"
 "http://www.w3.org/Graphics/SVG/1.1/DTD/svg11.dtd">
<!-- Generated by graphviz version 2.38.0 (20140413.2041)
 -->
<!-- Title: %3 Pages: 1 -->
<svg width="1296pt" height="750pt"
 viewBox="0.00 0.00 1296.00 750.00" xmlns="http://www.w3.org/2000/svg" xmlns:xlink="http://www.w3.org/1999/xlink">
<g id="graph0" class="graph" transform="scale(1 1) rotate(0) translate(4 746)">
<title>%3</title>
<polygon fill="white" stroke="none" points="-4,4 -4,-746 1292,-746 1292,4 -4,4"/>
<g id="clust1" class="cluster"><title>cluster_0</title>
<polygon fill="none" stroke="black" points="804,-8 804,-371 1268,-371 1268,-8 804,-8"/>
<text text-anchor="middle" x="1036" y="-355.8" font-family="Times,serif" font-size="14.00">client</text>
</g>
<g id="clust4" class="cluster"><title>cluster_1</title>
<polygon fill="none" stroke="black" points="8,-80 8,-734 796,-734 796,-80 8,-80"/>
<text text-anchor="middle" x="402" y="-718.8" font-family="Times,serif" font-size="14.00">server</text>
</g>
<!-- password -->
<g id="node1" class="node"><title>password</title>
<ellipse fill="none" stroke="black" cx="1216" cy="-322" rx="44.393" ry="18"/>
<text text-anchor="middle" x="1216" y="-318.3" font-family="Times,serif" font-size="14.00">password</text>
</g>
<!-- clientStretch -->
<g id="node3" class="node"><title>clientStretch</title>
<ellipse fill="none" stroke="black" cx="1163" cy="-250" rx="55.4913" ry="18"/>
<text text-anchor="middle" x="1163" y="-246.3" font-family="Times,serif" font-size="14.00">clientStretch</text>
</g>
<!-- password&#45;&gt;clientStretch -->
<g id="edge1" class="edge"><title>password&#45;&gt;clientStretch</title>
<path fill="none" stroke="black" d="M1203.44,-304.411C1197.07,-295.992 1189.19,-285.585 1182.08,-276.201"/>
<polygon fill="black" stroke="black" points="1184.67,-273.816 1175.84,-267.956 1179.08,-278.042 1184.67,-273.816"/>
</g>
<!-- email -->
<g id="node2" class="node"><title>email</title>
<ellipse fill="none" stroke="black" cx="1123" cy="-322" rx="30.5947" ry="18"/>
<text text-anchor="middle" x="1123" y="-318.3" font-family="Times,serif" font-size="14.00">email</text>
</g>
<!-- email&#45;&gt;clientStretch -->
<g id="edge2" class="edge"><title>email&#45;&gt;clientStretch</title>
<path fill="none" stroke="black" d="M1132.28,-304.765C1136.99,-296.525 1142.82,-286.317 1148.13,-277.016"/>
<polygon fill="black" stroke="black" points="1151.29,-278.543 1153.21,-268.124 1145.21,-275.07 1151.29,-278.543"/>
</g>
<!-- clientStretchedPassword -->
<g id="node4" class="node"><title>clientStretchedPassword</title>
<ellipse fill="none" stroke="black" cx="1163" cy="-178" rx="96.6831" ry="18"/>
<text text-anchor="middle" x="1163" y="-174.3" font-family="Times,serif" font-size="14.00">clientStretchedPassword</text>
</g>
<!-- clientStretch&#45;&gt;clientStretchedPassword -->
<g id="edge3" class="edge"><title>clientStretch&#45;&gt;clientStretchedPassword</title>
<path fill="none" stroke="black" d="M1163,-231.697C1163,-223.983 1163,-214.712 1163,-206.112"/>
<polygon fill="black" stroke="black" points="1166.5,-206.104 1163,-196.104 1159.5,-206.104 1166.5,-206.104"/>
</g>
<!-- deriveAuthenticationToken -->
<g id="node5" class="node"><title>deriveAuthenticationToken</title>
<ellipse fill="none" stroke="black" cx="1166" cy="-106" rx="47.3916" ry="18"/>
<text text-anchor="middle" x="1166" y="-102.3" font-family="Times,serif" font-size="14.00">deriveKey</text>
</g>
<!-- clientStretchedPassword&#45;&gt;deriveAuthenticationToken -->
<g id="edge4" class="edge"><title>clientStretchedPassword&#45;&gt;deriveAuthenticationToken</title>
<path fill="none" stroke="black" d="M1163.74,-159.697C1164.07,-151.983 1164.47,-142.712 1164.84,-134.112"/>
<polygon fill="black" stroke="black" points="1168.34,-134.245 1165.27,-124.104 1161.34,-133.945 1168.34,-134.245"/>
</g>
<!-- authenticationToken -->
<g id="node6" class="node"><title>authenticationToken</title>
<ellipse fill="none" stroke="black" cx="1173" cy="-34" rx="83.3857" ry="18"/>
<text text-anchor="middle" x="1173" y="-30.3" font-family="Times,serif" font-size="14.00">authenticationToken</text>
</g>
<!-- deriveAuthenticationToken&#45;&gt;authenticationToken -->
<g id="edge5" class="edge"><title>deriveAuthenticationToken&#45;&gt;authenticationToken</title>
<path fill="none" stroke="black" d="M1167.73,-87.6966C1168.5,-79.9827 1169.43,-70.7125 1170.29,-62.1124"/>
<polygon fill="black" stroke="black" points="1173.78,-62.403 1171.29,-52.1043 1166.81,-61.7064 1173.78,-62.403"/>
</g>
<!-- deriveServerStretched -->
<g id="node13" class="node"><title>deriveServerStretched</title>
<ellipse fill="none" stroke="black" cx="741" cy="-541" rx="47.3916" ry="18"/>
<text text-anchor="middle" x="741" y="-537.3" font-family="Times,serif" font-size="14.00">deriveKey</text>
</g>
<!-- authenticationToken&#45;&gt;deriveServerStretched -->
<g id="edge10" class="edge"><title>authenticationToken&#45;&gt;deriveServerStretched</title>
<path fill="none" stroke="black" d="M1199.1,-51.1804C1233.03,-74.4627 1288,-120.85 1288,-177 1288,-398 1288,-398 1288,-398 1288,-498.384 938.504,-529.016 798.239,-537.268"/>
<polygon fill="black" stroke="black" points="797.895,-533.781 788.11,-537.846 798.294,-540.77 797.895,-533.781"/>
</g>
<!-- xorEncryptionKey -->
<g id="node7" class="node"><title>xorEncryptionKey</title>
<ellipse fill="none" stroke="black" cx="930" cy="-250" rx="29.4969" ry="18"/>
<text text-anchor="middle" x="930" y="-246.3" font-family="Times,serif" font-size="14.00">XOR</text>
</g>
<!-- encryptionKey -->
<g id="node10" class="node"><title>encryptionKey</title>
<ellipse fill="none" stroke="black" cx="930" cy="-178" rx="63.0888" ry="18"/>
<text text-anchor="middle" x="930" y="-174.3" font-family="Times,serif" font-size="14.00">encryptionKey</text>
</g>
<!-- xorEncryptionKey&#45;&gt;encryptionKey -->
<g id="edge8" class="edge"><title>xorEncryptionKey&#45;&gt;encryptionKey</title>
<path fill="none" stroke="black" d="M930,-231.697C930,-223.983 930,-214.712 930,-206.112"/>
<polygon fill="black" stroke="black" points="933.5,-206.104 930,-196.104 926.5,-206.104 933.5,-206.104"/>
</g>
<!-- clientWrappedKeyOnClient -->
<g id="node8" class="node"><title>clientWrappedKeyOnClient</title>
<ellipse fill="none" stroke="black" cx="997" cy="-322" rx="77.1866" ry="18"/>
<text text-anchor="middle" x="997" y="-318.3" font-family="Times,serif" font-size="14.00">clientWrappedKey</text>
</g>
<!-- clientWrappedKeyOnClient&#45;&gt;xorEncryptionKey -->
<g id="edge6" class="edge"><title>clientWrappedKeyOnClient&#45;&gt;xorEncryptionKey</title>
<path fill="none" stroke="black" d="M980.781,-304.055C971.893,-294.769 960.77,-283.148 951.201,-273.151"/>
<polygon fill="black" stroke="black" points="953.693,-270.692 944.25,-265.888 948.636,-275.532 953.693,-270.692"/>
</g>
<!-- clientKey -->
<g id="node9" class="node"><title>clientKey</title>
<ellipse fill="none" stroke="black" cx="857" cy="-322" rx="44.6926" ry="18"/>
<text text-anchor="middle" x="857" y="-318.3" font-family="Times,serif" font-size="14.00">clientKey</text>
</g>
<!-- clientKey&#45;&gt;xorEncryptionKey -->
<g id="edge7" class="edge"><title>clientKey&#45;&gt;xorEncryptionKey</title>
<path fill="none" stroke="black" d="M873.565,-305.116C883.449,-295.638 896.147,-283.462 906.994,-273.06"/>
<polygon fill="black" stroke="black" points="909.704,-275.311 914.499,-265.864 904.859,-270.259 909.704,-275.311"/>
</g>
<!-- authenticationSalt -->
<g id="node11" class="node"><title>authenticationSalt</title>
<ellipse fill="none" stroke="black" cx="714" cy="-613" rx="74.187" ry="18"/>
<text text-anchor="middle" x="714" y="-609.3" font-family="Times,serif" font-size="14.00">authenticationSalt</text>
</g>
<!-- authenticationSalt&#45;&gt;deriveServerStretched -->
<g id="edge11" class="edge"><title>authenticationSalt&#45;&gt;deriveServerStretched</title>
<path fill="none" stroke="black" d="M720.536,-595.055C723.575,-587.176 727.262,-577.617 730.665,-568.794"/>
<polygon fill="black" stroke="black" points="734.003,-569.865 734.337,-559.275 727.472,-567.346 734.003,-569.865"/>
</g>
<!-- randomAuthenticationSalt -->
<g id="node12" class="node"><title>randomAuthenticationSalt</title>
<ellipse fill="none" stroke="black" cx="714" cy="-685" rx="38.1938" ry="18"/>
<text text-anchor="middle" x="714" y="-681.3" font-family="Times,serif" font-size="14.00">random</text>
</g>
<!-- randomAuthenticationSalt&#45;&gt;authenticationSalt -->
<g id="edge9" class="edge"><title>randomAuthenticationSalt&#45;&gt;authenticationSalt</title>
<path fill="none" stroke="black" d="M714,-666.697C714,-658.983 714,-649.712 714,-641.112"/>
<polygon fill="black" stroke="black" points="717.5,-641.104 714,-631.104 710.5,-641.104 717.5,-641.104"/>
</g>
<!-- serverStretchedPassword -->
<g id="node14" class="node"><title>serverStretchedPassword</title>
<ellipse fill="none" stroke="black" cx="689" cy="-469" rx="98.5829" ry="18"/>
<text text-anchor="middle" x="689" y="-465.3" font-family="Times,serif" font-size="14.00">serverStretchedPassword</text>
</g>
<!-- deriveServerStretched&#45;&gt;serverStretchedPassword -->
<g id="edge12" class="edge"><title>deriveServerStretched&#45;&gt;serverStretchedPassword</title>
<path fill="none" stroke="black" d="M728.677,-523.411C722.422,-514.992 714.692,-504.585 707.721,-495.201"/>
<polygon fill="black" stroke="black" points="710.369,-492.897 701.596,-486.956 704.75,-497.071 710.369,-492.897"/>
</g>
<!-- deriveVerificationHash -->
<g id="node15" class="node"><title>deriveVerificationHash</title>
<ellipse fill="none" stroke="black" cx="689" cy="-397" rx="47.3916" ry="18"/>
<text text-anchor="middle" x="689" y="-393.3" font-family="Times,serif" font-size="14.00">deriveKey</text>
</g>
<!-- serverStretchedPassword&#45;&gt;deriveVerificationHash -->
<g id="edge13" class="edge"><title>serverStretchedPassword&#45;&gt;deriveVerificationHash</title>
<path fill="none" stroke="black" d="M689,-450.697C689,-442.983 689,-433.712 689,-425.112"/>
<polygon fill="black" stroke="black" points="692.5,-425.104 689,-415.104 685.5,-425.104 692.5,-425.104"/>
</g>
<!-- verificationHash -->
<g id="node16" class="node"><title>verificationHash</title>
<ellipse fill="none" stroke="black" cx="689" cy="-322" rx="69.5877" ry="18"/>
<text text-anchor="middle" x="689" y="-318.3" font-family="Times,serif" font-size="14.00">verificationHash</text>
</g>
<!-- deriveVerificationHash&#45;&gt;verificationHash -->
<g id="edge14" class="edge"><title>deriveVerificationHash&#45;&gt;verificationHash</title>
<path fill="none" stroke="black" d="M689,-378.7C689,-370.245 689,-359.869 689,-350.373"/>
<polygon fill="black" stroke="black" points="692.5,-350.176 689,-340.176 685.5,-350.176 692.5,-350.176"/>
</g>
<!-- randomSeverWrappedKey -->
<g id="node17" class="node"><title>randomSeverWrappedKey</title>
<ellipse fill="none" stroke="black" cx="542" cy="-613" rx="38.1938" ry="18"/>
<text text-anchor="middle" x="542" y="-609.3" font-family="Times,serif" font-size="14.00">random</text>
</g>
<!-- serverWrappedKey -->
<g id="node18" class="node"><title>serverWrappedKey</title>
<ellipse fill="none" stroke="black" cx="485" cy="-541" rx="79.0865" ry="18"/>
<text text-anchor="middle" x="485" y="-537.3" font-family="Times,serif" font-size="14.00">serverWrappedKey</text>
</g>
<!-- randomSeverWrappedKey&#45;&gt;serverWrappedKey -->
<g id="edge15" class="edge"><title>randomSeverWrappedKey&#45;&gt;serverWrappedKey</title>
<path fill="none" stroke="black" d="M528.78,-595.765C521.861,-587.268 513.237,-576.677 505.476,-567.146"/>
<polygon fill="black" stroke="black" points="507.972,-564.668 498.944,-559.124 502.544,-569.088 507.972,-564.668"/>
</g>
<!-- xorClientWrappedKey -->
<g id="node33" class="node"><title>xorClientWrappedKey</title>
<ellipse fill="none" stroke="black" cx="514" cy="-469" rx="29.4969" ry="18"/>
<text text-anchor="middle" x="514" y="-465.3" font-family="Times,serif" font-size="14.00">XOR</text>
</g>
<!-- serverWrappedKey&#45;&gt;xorClientWrappedKey -->
<g id="edge30" class="edge"><title>serverWrappedKey&#45;&gt;xorClientWrappedKey</title>
<path fill="none" stroke="black" d="M492.02,-523.055C495.368,-514.973 499.45,-505.121 503.182,-496.112"/>
<polygon fill="black" stroke="black" points="506.451,-497.367 507.045,-486.789 499.984,-494.688 506.451,-497.367"/>
</g>
<!-- keyAccessToken -->
<g id="node19" class="node"><title>keyAccessToken</title>
<ellipse fill="none" stroke="black" cx="236" cy="-685" rx="70.6878" ry="18"/>
<text text-anchor="middle" x="236" y="-681.3" font-family="Times,serif" font-size="14.00">keyAccessToken</text>
</g>
<!-- deriveRequestAuthenticationKey -->
<g id="node20" class="node"><title>deriveRequestAuthenticationKey</title>
<ellipse fill="none" stroke="black" cx="358" cy="-613" rx="128.077" ry="18"/>
<text text-anchor="middle" x="358" y="-609.3" font-family="Times,serif" font-size="14.00">deriveRequestAuthenticationKey</text>
</g>
<!-- keyAccessToken&#45;&gt;deriveRequestAuthenticationKey -->
<g id="edge16" class="edge"><title>keyAccessToken&#45;&gt;deriveRequestAuthenticationKey</title>
<path fill="none" stroke="black" d="M263.379,-668.291C280.163,-658.661 301.885,-646.197 320.283,-635.641"/>
<polygon fill="black" stroke="black" points="322.08,-638.645 329.012,-630.633 318.596,-632.574 322.08,-638.645"/>
</g>
<!-- deriveKeyRequestToken -->
<g id="node22" class="node"><title>deriveKeyRequestToken</title>
<ellipse fill="none" stroke="black" cx="114" cy="-613" rx="98.2828" ry="18"/>
<text text-anchor="middle" x="114" y="-609.3" font-family="Times,serif" font-size="14.00">deriveKeyRequestToken</text>
</g>
<!-- keyAccessToken&#45;&gt;deriveKeyRequestToken -->
<g id="edge18" class="edge"><title>keyAccessToken&#45;&gt;deriveKeyRequestToken</title>
<path fill="none" stroke="black" d="M208.621,-668.291C191.716,-658.591 169.802,-646.017 151.32,-635.413"/>
<polygon fill="black" stroke="black" points="152.976,-632.328 142.56,-630.387 149.492,-638.4 152.976,-632.328"/>
</g>
<!-- requestAuthenticationKey -->
<g id="node21" class="node"><title>requestAuthenticationKey</title>
<ellipse fill="none" stroke="black" cx="285" cy="-541" rx="102.882" ry="18"/>
<text text-anchor="middle" x="285" y="-537.3" font-family="Times,serif" font-size="14.00">requestAuthenticationKey</text>
</g>
<!-- deriveRequestAuthenticationKey&#45;&gt;requestAuthenticationKey -->
<g id="edge17" class="edge"><title>deriveRequestAuthenticationKey&#45;&gt;requestAuthenticationKey</title>
<path fill="none" stroke="black" d="M340.329,-595.055C331.183,-586.285 319.865,-575.432 309.853,-565.831"/>
<polygon fill="black" stroke="black" points="312.149,-563.184 302.509,-558.789 307.304,-568.236 312.149,-563.184"/>
</g>
<!-- keyRequestToken -->
<g id="node23" class="node"><title>keyRequestToken</title>
<ellipse fill="none" stroke="black" cx="90" cy="-541" rx="74.187" ry="18"/>
<text text-anchor="middle" x="90" y="-537.3" font-family="Times,serif" font-size="14.00">keyRequestToken</text>
</g>
<!-- deriveKeyRequestToken&#45;&gt;keyRequestToken -->
<g id="edge19" class="edge"><title>deriveKeyRequestToken&#45;&gt;keyRequestToken</title>
<path fill="none" stroke="black" d="M108.067,-594.697C105.394,-586.898 102.174,-577.509 99.1986,-568.829"/>
<polygon fill="black" stroke="black" points="102.418,-567.429 95.8643,-559.104 95.7968,-569.699 102.418,-567.429"/>
</g>
<!-- deriveResponseAuthenticationKey -->
<g id="node24" class="node"><title>deriveResponseAuthenticationKey</title>
<ellipse fill="none" stroke="black" cx="102" cy="-397" rx="47.3916" ry="18"/>
<text text-anchor="middle" x="102" y="-393.3" font-family="Times,serif" font-size="14.00">deriveKey</text>
</g>
<!-- keyRequestToken&#45;&gt;deriveResponseAuthenticationKey -->
<g id="edge20" class="edge"><title>keyRequestToken&#45;&gt;deriveResponseAuthenticationKey</title>
<path fill="none" stroke="black" d="M91.4475,-522.871C93.4927,-498.67 97.2498,-454.211 99.6851,-425.393"/>
<polygon fill="black" stroke="black" points="103.193,-425.449 100.547,-415.189 96.2177,-424.859 103.193,-425.449"/>
</g>
<!-- deriveResponseEncryptionKey -->
<g id="node25" class="node"><title>deriveResponseEncryptionKey</title>
<ellipse fill="none" stroke="black" cx="204" cy="-469" rx="47.3916" ry="18"/>
<text text-anchor="middle" x="204" y="-465.3" font-family="Times,serif" font-size="14.00">deriveKey</text>
</g>
<!-- keyRequestToken&#45;&gt;deriveResponseEncryptionKey -->
<g id="edge22" class="edge"><title>keyRequestToken&#45;&gt;deriveResponseEncryptionKey</title>
<path fill="none" stroke="black" d="M115.868,-524.116C132.315,-514.017 153.75,-500.855 171.363,-490.04"/>
<polygon fill="black" stroke="black" points="173.487,-492.843 180.178,-484.628 169.825,-486.878 173.487,-492.843"/>
</g>
<!-- responseAuthenticationKey -->
<g id="node26" class="node"><title>responseAuthenticationKey</title>
<ellipse fill="none" stroke="black" cx="125" cy="-322" rx="108.581" ry="18"/>
<text text-anchor="middle" x="125" y="-318.3" font-family="Times,serif" font-size="14.00">responseAuthenticationKey</text>
</g>
<!-- deriveResponseAuthenticationKey&#45;&gt;responseAuthenticationKey -->
<g id="edge21" class="edge"><title>deriveResponseAuthenticationKey&#45;&gt;responseAuthenticationKey</title>
<path fill="none" stroke="black" d="M107.334,-379.069C110.073,-370.379 113.473,-359.587 116.557,-349.799"/>
<polygon fill="black" stroke="black" points="119.948,-350.682 119.615,-340.092 113.271,-348.578 119.948,-350.682"/>
</g>
<!-- responseEncryptionKey -->
<g id="node27" class="node"><title>responseEncryptionKey</title>
<ellipse fill="none" stroke="black" cx="266" cy="-397" rx="94.7833" ry="18"/>
<text text-anchor="middle" x="266" y="-393.3" font-family="Times,serif" font-size="14.00">responseEncryptionKey</text>
</g>
<!-- deriveResponseEncryptionKey&#45;&gt;responseEncryptionKey -->
<g id="edge23" class="edge"><title>deriveResponseEncryptionKey&#45;&gt;responseEncryptionKey</title>
<path fill="none" stroke="black" d="M218.38,-451.765C225.982,-443.182 235.476,-432.462 243.983,-422.858"/>
<polygon fill="black" stroke="black" points="246.823,-424.93 250.833,-415.124 241.583,-420.289 246.823,-424.93"/>
</g>
<!-- macCiphertext -->
<g id="node31" class="node"><title>macCiphertext</title>
<ellipse fill="none" stroke="black" cx="180" cy="-178" rx="31.3957" ry="18"/>
<text text-anchor="middle" x="180" y="-174.3" font-family="Times,serif" font-size="14.00">MAC</text>
</g>
<!-- responseAuthenticationKey&#45;&gt;macCiphertext -->
<g id="edge27" class="edge"><title>responseAuthenticationKey&#45;&gt;macCiphertext</title>
<path fill="none" stroke="black" d="M131.634,-303.871C141.142,-279.325 158.721,-233.938 169.864,-205.17"/>
<polygon fill="black" stroke="black" points="173.165,-206.337 173.513,-195.748 166.637,-203.809 173.165,-206.337"/>
</g>
<!-- xorCiphertext -->
<g id="node28" class="node"><title>xorCiphertext</title>
<ellipse fill="none" stroke="black" cx="281" cy="-322" rx="29.4969" ry="18"/>
<text text-anchor="middle" x="281" y="-318.3" font-family="Times,serif" font-size="14.00">XOR</text>
</g>
<!-- responseEncryptionKey&#45;&gt;xorCiphertext -->
<g id="edge24" class="edge"><title>responseEncryptionKey&#45;&gt;xorCiphertext</title>
<path fill="none" stroke="black" d="M269.555,-378.7C271.323,-370.092 273.501,-359.493 275.481,-349.859"/>
<polygon fill="black" stroke="black" points="278.938,-350.424 277.522,-339.924 272.081,-349.015 278.938,-350.424"/>
</g>
<!-- ciphertext -->
<g id="node30" class="node"><title>ciphertext</title>
<ellipse fill="none" stroke="black" cx="258" cy="-250" rx="46.2923" ry="18"/>
<text text-anchor="middle" x="258" y="-246.3" font-family="Times,serif" font-size="14.00">ciphertext</text>
</g>
<!-- xorCiphertext&#45;&gt;ciphertext -->
<g id="edge26" class="edge"><title>xorCiphertext&#45;&gt;ciphertext</title>
<path fill="none" stroke="black" d="M275.432,-304.055C272.844,-296.176 269.703,-286.617 266.804,-277.794"/>
<polygon fill="black" stroke="black" points="270.123,-276.683 263.676,-268.275 263.473,-278.868 270.123,-276.683"/>
</g>
<!-- clientWrappedKeyOnServer -->
<g id="node29" class="node"><title>clientWrappedKeyOnServer</title>
<ellipse fill="none" stroke="black" cx="514" cy="-397" rx="77.1866" ry="18"/>
<text text-anchor="middle" x="514" y="-393.3" font-family="Times,serif" font-size="14.00">clientWrappedKey</text>
</g>
<!-- clientWrappedKeyOnServer&#45;&gt;clientWrappedKeyOnClient -->
<g id="edge33" class="edge"><title>clientWrappedKeyOnServer&#45;&gt;clientWrappedKeyOnClient</title>
<path fill="none" stroke="black" d="M575.305,-385.89C593.797,-383.206 614.182,-380.61 633,-379 663.789,-376.366 881.209,-379.21 911,-371 930.429,-365.645 950.198,-355.046 965.875,-345.167"/>
<polygon fill="black" stroke="black" points="968.134,-347.872 974.599,-339.478 964.311,-342.009 968.134,-347.872"/>
</g>
<!-- clientWrappedKeyOnServer&#45;&gt;xorCiphertext -->
<g id="edge25" class="edge"><title>clientWrappedKeyOnServer&#45;&gt;xorCiphertext</title>
<path fill="none" stroke="black" d="M469.901,-382.183C425.292,-368.207 357.218,-346.88 316.127,-334.005"/>
<polygon fill="black" stroke="black" points="317.13,-330.652 306.541,-331.002 315.038,-337.332 317.13,-330.652"/>
</g>
<!-- ciphertext&#45;&gt;macCiphertext -->
<g id="edge28" class="edge"><title>ciphertext&#45;&gt;macCiphertext</title>
<path fill="none" stroke="black" d="M240.301,-233.116C229.564,-223.48 215.72,-211.056 204.005,-200.543"/>
<polygon fill="black" stroke="black" points="206.08,-197.702 196.299,-193.628 201.404,-202.912 206.08,-197.702"/>
</g>
<!-- mac -->
<g id="node32" class="node"><title>mac</title>
<ellipse fill="none" stroke="black" cx="180" cy="-106" rx="27" ry="18"/>
<text text-anchor="middle" x="180" y="-102.3" font-family="Times,serif" font-size="14.00">mac</text>
</g>
<!-- macCiphertext&#45;&gt;mac -->
<g id="edge29" class="edge"><title>macCiphertext&#45;&gt;mac</title>
<path fill="none" stroke="black" d="M180,-159.697C180,-151.983 180,-142.712 180,-134.112"/>
<polygon fill="black" stroke="black" points="183.5,-134.104 180,-124.104 176.5,-134.104 183.5,-134.104"/>
</g>
<!-- xorClientWrappedKey&#45;&gt;clientWrappedKeyOnServer -->
<g id="edge32" class="edge"><title>xorClientWrappedKey&#45;&gt;clientWrappedKeyOnServer</title>
<path fill="none" stroke="black" d="M514,-450.697C514,-442.983 514,-433.712 514,-425.112"/>
<polygon fill="black" stroke="black" points="517.5,-425.104 514,-415.104 510.5,-425.104 517.5,-425.104"/>
</g>
<!-- serverKey -->
<g id="node34" class="node"><title>serverKey</title>
<ellipse fill="none" stroke="black" cx="629" cy="-541" rx="46.5926" ry="18"/>
<text text-anchor="middle" x="629" y="-537.3" font-family="Times,serif" font-size="14.00">serverKey</text>
</g>
<!-- serverKey&#45;&gt;xorClientWrappedKey -->
<g id="edge31" class="edge"><title>serverKey&#45;&gt;xorClientWrappedKey</title>
<path fill="none" stroke="black" d="M605.172,-525.496C587.111,-514.502 562.207,-499.344 542.991,-487.646"/>
<polygon fill="black" stroke="black" points="544.7,-484.59 534.338,-482.38 541.06,-490.569 544.7,-484.59"/>
</g>
</g>
</svg>
