<?xml version="1.0" encoding="UTF-8" standalone="no"?>
<!DOCTYPE svg PUBLIC "-//W3C//DTD SVG 1.1//EN"
 "http://www.w3.org/Graphics/SVG/1.1/DTD/svg11.dtd">
<!-- Generated by graphviz version 2.40.1 (20161225.0304)
 -->
<!-- Title: %3 Pages: 1 -->
<svg width="1155pt" height="952pt"
 viewBox="0.00 0.00 1155.09 952.00" xmlns="http://www.w3.org/2000/svg" xmlns:xlink="http://www.w3.org/1999/xlink">
<g id="graph0" class="graph" transform="scale(1 1) rotate(0) translate(4 948)">
<title>%3</title>
<polygon fill="#ffffff" stroke="transparent" points="-4,4 -4,-948 1151.0877,-948 1151.0877,4 -4,4"/>
<!-- password -->
<g id="node1" class="node">
<title>password</title>
<ellipse fill="none" stroke="#000000" cx="131.5473" cy="-926" rx="44.393" ry="18"/>
<text text-anchor="middle" x="131.5473" y="-922.3" font-family="Times,serif" font-size="14.00" fill="#000000">password</text>
</g>
<!-- clientStretch -->
<g id="node3" class="node">
<title>clientStretch</title>
<polygon fill="none" stroke="#000000" points="174.0473,-872 89.0473,-872 89.0473,-836 174.0473,-836 174.0473,-872"/>
<text text-anchor="middle" x="131.5473" y="-850.3" font-family="Times,serif" font-size="14.00" fill="#000000">clientStretch</text>
</g>
<!-- password&#45;&gt;clientStretch -->
<g id="edge1" class="edge">
<title>password&#45;&gt;clientStretch</title>
<path fill="none" stroke="#000000" d="M131.5473,-907.8314C131.5473,-900.131 131.5473,-890.9743 131.5473,-882.4166"/>
<polygon fill="#000000" stroke="#000000" points="135.0474,-882.4132 131.5473,-872.4133 128.0474,-882.4133 135.0474,-882.4132"/>
</g>
<!-- email -->
<g id="node2" class="node">
<title>email</title>
<ellipse fill="none" stroke="#000000" cx="30.5473" cy="-926" rx="30.5947" ry="18"/>
<text text-anchor="middle" x="30.5473" y="-922.3" font-family="Times,serif" font-size="14.00" fill="#000000">email</text>
</g>
<!-- email&#45;&gt;clientStretch -->
<g id="edge2" class="edge">
<title>email&#45;&gt;clientStretch</title>
<path fill="none" stroke="#000000" d="M50.0211,-912.1177C63.467,-902.5325 81.7039,-889.5319 97.5199,-878.2571"/>
<polygon fill="#000000" stroke="#000000" points="99.9007,-880.8583 106.0118,-872.2035 95.8373,-875.1583 99.9007,-880.8583"/>
</g>
<!-- serverDatabase -->
<g id="node30" class="node">
<title>serverDatabase</title>
<path fill="none" stroke="#000000" d="M282.0473,-436.7273C282.0473,-438.5331 259.8606,-440 232.5473,-440 205.234,-440 183.0473,-438.5331 183.0473,-436.7273 183.0473,-436.7273 183.0473,-407.2727 183.0473,-407.2727 183.0473,-405.4669 205.234,-404 232.5473,-404 259.8606,-404 282.0473,-405.4669 282.0473,-407.2727 282.0473,-407.2727 282.0473,-436.7273 282.0473,-436.7273"/>
<path fill="none" stroke="#000000" d="M282.0473,-436.7273C282.0473,-434.9214 259.8606,-433.4545 232.5473,-433.4545 205.234,-433.4545 183.0473,-434.9214 183.0473,-436.7273"/>
<text text-anchor="middle" x="232.5473" y="-418.3" font-family="Times,serif" font-size="14.00" fill="#000000">serverDatabase</text>
</g>
<!-- email&#45;&gt;serverDatabase -->
<g id="edge35" class="edge">
<title>email&#45;&gt;serverDatabase</title>
<path fill="none" stroke="#000000" d="M27.2321,-907.8863C22.5456,-880.6615 14.5473,-827.5285 14.5473,-782 14.5473,-782 14.5473,-782 14.5473,-566 14.5473,-489.7431 108.5658,-451.5407 173.1157,-434.2986"/>
<polygon fill="#000000" stroke="#000000" points="173.9936,-437.6867 182.8069,-431.8066 172.2503,-430.9073 173.9936,-437.6867"/>
</g>
<!-- clientStretchedPassword -->
<g id="node4" class="node">
<title>clientStretchedPassword</title>
<ellipse fill="none" stroke="#000000" cx="139.5473" cy="-782" rx="96.6831" ry="18"/>
<text text-anchor="middle" x="139.5473" y="-778.3" font-family="Times,serif" font-size="14.00" fill="#000000">clientStretchedPassword</text>
</g>
<!-- clientStretch&#45;&gt;clientStretchedPassword -->
<g id="edge3" class="edge">
<title>clientStretch&#45;&gt;clientStretchedPassword</title>
<path fill="none" stroke="#000000" d="M133.566,-835.8314C134.4216,-828.131 135.439,-818.9743 136.3899,-810.4166"/>
<polygon fill="#000000" stroke="#000000" points="139.8756,-810.7386 137.5014,-800.4133 132.9184,-809.9656 139.8756,-810.7386"/>
</g>
<!-- authenticationToken -->
<g id="node5" class="node">
<title>authenticationToken</title>
<ellipse fill="none" stroke="#000000" cx="304.5473" cy="-710" rx="83.3857" ry="18"/>
<text text-anchor="middle" x="304.5473" y="-706.3" font-family="Times,serif" font-size="14.00" fill="#000000">authenticationToken</text>
</g>
<!-- clientStretchedPassword&#45;&gt;authenticationToken -->
<g id="edge4" class="edge">
<title>clientStretchedPassword&#45;&gt;authenticationToken</title>
<path fill="none" stroke="#000000" d="M177.8163,-765.3008C201.7061,-754.8762 232.6212,-741.3859 257.9363,-730.3393"/>
<polygon fill="#000000" stroke="#000000" points="259.5725,-733.4441 267.3381,-726.2368 256.7728,-727.0284 259.5725,-733.4441"/>
</g>
<!-- clientWrappingKey -->
<g id="node27" class="node">
<title>clientWrappingKey</title>
<ellipse fill="none" stroke="#000000" cx="123.5473" cy="-566" rx="80.6858" ry="18"/>
<text text-anchor="middle" x="123.5473" y="-562.3" font-family="Times,serif" font-size="14.00" fill="#000000">clientWrappingKey</text>
</g>
<!-- clientStretchedPassword&#45;&gt;clientWrappingKey -->
<g id="edge31" class="edge">
<title>clientStretchedPassword&#45;&gt;clientWrappingKey</title>
<path fill="none" stroke="#000000" d="M138.2107,-763.9555C135.4224,-726.3144 128.9685,-639.1867 125.6306,-594.1246"/>
<polygon fill="#000000" stroke="#000000" points="129.1206,-593.8592 124.8914,-584.1451 122.1397,-594.3763 129.1206,-593.8592"/>
</g>
<!-- serverStretch -->
<g id="node8" class="node">
<title>serverStretch</title>
<polygon fill="none" stroke="#000000" points="467.5473,-656 379.5473,-656 379.5473,-620 467.5473,-620 467.5473,-656"/>
<text text-anchor="middle" x="423.5473" y="-634.3" font-family="Times,serif" font-size="14.00" fill="#000000">serverStretch</text>
</g>
<!-- authenticationToken&#45;&gt;serverStretch -->
<g id="edge6" class="edge">
<title>authenticationToken&#45;&gt;serverStretch</title>
<path fill="none" stroke="#000000" d="M332.7486,-692.937C348.3171,-683.5174 367.8822,-671.6797 384.8603,-661.4072"/>
<polygon fill="#000000" stroke="#000000" points="386.7241,-664.3704 393.4681,-656.1992 383.1004,-658.3813 386.7241,-664.3704"/>
</g>
<!-- random -->
<g id="node6" class="node">
<title>random</title>
<polygon fill="none" stroke="#000000" points="560.0473,-800 501.0473,-800 501.0473,-764 560.0473,-764 560.0473,-800"/>
<text text-anchor="middle" x="530.5473" y="-778.3" font-family="Times,serif" font-size="14.00" fill="#000000">random</text>
</g>
<!-- authenticationSalt -->
<g id="node7" class="node">
<title>authenticationSalt</title>
<ellipse fill="none" stroke="#000000" cx="479.5473" cy="-710" rx="74.187" ry="18"/>
<text text-anchor="middle" x="479.5473" y="-706.3" font-family="Times,serif" font-size="14.00" fill="#000000">authenticationSalt</text>
</g>
<!-- random&#45;&gt;authenticationSalt -->
<g id="edge5" class="edge">
<title>random&#45;&gt;authenticationSalt</title>
<path fill="none" stroke="#000000" d="M517.6778,-763.8314C511.7743,-755.497 504.6624,-745.4567 498.1879,-736.3162"/>
<polygon fill="#000000" stroke="#000000" points="500.8723,-734.0506 492.236,-727.9134 495.1601,-738.0967 500.8723,-734.0506"/>
</g>
<!-- serverWrappedEncryptionKey -->
<g id="node11" class="node">
<title>serverWrappedEncryptionKey</title>
<ellipse fill="none" stroke="#000000" cx="536.5473" cy="-494" rx="118.0794" ry="18"/>
<text text-anchor="middle" x="536.5473" y="-490.3" font-family="Times,serif" font-size="14.00" fill="#000000">serverWrappedEncryptionKey</text>
</g>
<!-- random&#45;&gt;serverWrappedEncryptionKey -->
<g id="edge10" class="edge">
<title>random&#45;&gt;serverWrappedEncryptionKey</title>
<path fill="none" stroke="#000000" d="M544.7832,-763.6423C551.6012,-753.6872 559.0335,-740.8222 562.5473,-728 582.442,-655.4032 560.2596,-566.1635 546.242,-521.7922"/>
<polygon fill="#000000" stroke="#000000" points="549.5649,-520.6926 543.1387,-512.2691 542.9094,-522.8615 549.5649,-520.6926"/>
</g>
<!-- userID -->
<g id="node12" class="node">
<title>userID</title>
<ellipse fill="none" stroke="#000000" cx="209.5473" cy="-638" rx="34.394" ry="18"/>
<text text-anchor="middle" x="209.5473" y="-634.3" font-family="Times,serif" font-size="14.00" fill="#000000">userID</text>
</g>
<!-- random&#45;&gt;userID -->
<g id="edge11" class="edge">
<title>random&#45;&gt;userID</title>
<path fill="none" stroke="#000000" d="M500.9037,-781.5393C429.3053,-779.7455 250.0765,-770.9663 212.5473,-728 197.9886,-711.3321 198.6135,-685.5785 202.0816,-665.8839"/>
<polygon fill="#000000" stroke="#000000" points="205.5399,-666.4441 204.1553,-655.9401 198.6874,-665.0149 205.5399,-666.4441"/>
</g>
<!-- keyAccessToken -->
<g id="node16" class="node">
<title>keyAccessToken</title>
<ellipse fill="none" stroke="#000000" cx="926.5473" cy="-494" rx="70.6878" ry="18"/>
<text text-anchor="middle" x="926.5473" y="-490.3" font-family="Times,serif" font-size="14.00" fill="#000000">keyAccessToken</text>
</g>
<!-- random&#45;&gt;keyAccessToken -->
<g id="edge16" class="edge">
<title>random&#45;&gt;keyAccessToken</title>
<path fill="none" stroke="#000000" d="M555.3189,-763.9843C624.1221,-713.9456 817.5355,-573.2813 894.4339,-517.3552"/>
<polygon fill="#000000" stroke="#000000" points="896.763,-519.9891 902.7918,-511.2767 892.6458,-514.3279 896.763,-519.9891"/>
</g>
<!-- authenticationSalt&#45;&gt;serverStretch -->
<g id="edge7" class="edge">
<title>authenticationSalt&#45;&gt;serverStretch</title>
<path fill="none" stroke="#000000" d="M465.7046,-692.2022C459.0911,-683.6992 451.0478,-673.3577 443.7668,-663.9965"/>
<polygon fill="#000000" stroke="#000000" points="446.5219,-661.8379 437.6197,-656.0931 440.9964,-666.1355 446.5219,-661.8379"/>
</g>
<!-- serverStretchedPassword -->
<g id="node9" class="node">
<title>serverStretchedPassword</title>
<ellipse fill="none" stroke="#000000" cx="423.5473" cy="-566" rx="98.5829" ry="18"/>
<text text-anchor="middle" x="423.5473" y="-562.3" font-family="Times,serif" font-size="14.00" fill="#000000">serverStretchedPassword</text>
</g>
<!-- serverStretch&#45;&gt;serverStretchedPassword -->
<g id="edge8" class="edge">
<title>serverStretch&#45;&gt;serverStretchedPassword</title>
<path fill="none" stroke="#000000" d="M423.5473,-619.8314C423.5473,-612.131 423.5473,-602.9743 423.5473,-594.4166"/>
<polygon fill="#000000" stroke="#000000" points="427.0474,-594.4132 423.5473,-584.4133 420.0474,-594.4133 427.0474,-594.4132"/>
</g>
<!-- verificationHash -->
<g id="node10" class="node">
<title>verificationHash</title>
<ellipse fill="none" stroke="#000000" cx="330.5473" cy="-494" rx="69.5877" ry="18"/>
<text text-anchor="middle" x="330.5473" y="-490.3" font-family="Times,serif" font-size="14.00" fill="#000000">verificationHash</text>
</g>
<!-- serverStretchedPassword&#45;&gt;verificationHash -->
<g id="edge9" class="edge">
<title>serverStretchedPassword&#45;&gt;verificationHash</title>
<path fill="none" stroke="#000000" d="M400.5585,-548.2022C388.5569,-538.9106 373.7195,-527.4237 360.7973,-517.4194"/>
<polygon fill="#000000" stroke="#000000" points="362.6811,-514.4515 352.6312,-511.0972 358.3958,-519.9865 362.6811,-514.4515"/>
</g>
<!-- serverWrappingKey -->
<g id="node13" class="node">
<title>serverWrappingKey</title>
<ellipse fill="none" stroke="#000000" cx="755.5473" cy="-494" rx="82.5854" ry="18"/>
<text text-anchor="middle" x="755.5473" y="-490.3" font-family="Times,serif" font-size="14.00" fill="#000000">serverWrappingKey</text>
</g>
<!-- serverStretchedPassword&#45;&gt;serverWrappingKey -->
<g id="edge12" class="edge">
<title>serverStretchedPassword&#45;&gt;serverWrappingKey</title>
<path fill="none" stroke="#000000" d="M487.1674,-552.2029C544.3905,-539.793 628.2429,-521.6082 686.9483,-508.8769"/>
<polygon fill="#000000" stroke="#000000" points="687.8433,-512.2642 696.8743,-506.7243 686.3596,-505.4233 687.8433,-512.2642"/>
</g>
<!-- verificationHash&#45;&gt;serverDatabase -->
<g id="edge36" class="edge">
<title>verificationHash&#45;&gt;serverDatabase</title>
<path fill="none" stroke="#000000" d="M307.3227,-476.937C294.8544,-467.7767 279.2736,-456.3295 265.5664,-446.2589"/>
<polygon fill="#000000" stroke="#000000" points="267.4495,-443.2994 257.3184,-440.1992 263.3049,-448.9406 267.4495,-443.2994"/>
</g>
<!-- serverWrappingKeyXOR -->
<g id="node14" class="node">
<title>serverWrappingKeyXOR</title>
<polygon fill="none" stroke="#000000" points="635.5473,-440 581.5473,-440 581.5473,-404 635.5473,-404 635.5473,-440"/>
<text text-anchor="middle" x="608.5473" y="-418.3" font-family="Times,serif" font-size="14.00" fill="#000000">XOR</text>
</g>
<!-- serverWrappedEncryptionKey&#45;&gt;serverWrappingKeyXOR -->
<g id="edge13" class="edge">
<title>serverWrappedEncryptionKey&#45;&gt;serverWrappingKeyXOR</title>
<path fill="none" stroke="#000000" d="M554.345,-476.2022C563.0198,-467.5275 573.6081,-456.9391 583.1169,-447.4304"/>
<polygon fill="#000000" stroke="#000000" points="585.858,-449.6391 590.4542,-440.0931 580.9082,-444.6893 585.858,-449.6391"/>
</g>
<!-- serverWrappedEncryptionKey&#45;&gt;serverDatabase -->
<g id="edge37" class="edge">
<title>serverWrappedEncryptionKey&#45;&gt;serverDatabase</title>
<path fill="none" stroke="#000000" d="M472.4482,-478.8186C419.2612,-466.2217 344.1967,-448.4433 292.2612,-436.1428"/>
<polygon fill="#000000" stroke="#000000" points="293.0574,-432.7346 282.5199,-433.8356 291.444,-439.5461 293.0574,-432.7346"/>
</g>
<!-- userID&#45;&gt;serverDatabase -->
<g id="edge38" class="edge">
<title>userID&#45;&gt;serverDatabase</title>
<path fill="none" stroke="#000000" d="M211.4687,-619.9555C215.4768,-582.3144 224.7543,-495.1867 229.5525,-450.1246"/>
<polygon fill="#000000" stroke="#000000" points="233.0366,-450.4595 230.6152,-440.1451 226.0759,-449.7182 233.0366,-450.4595"/>
</g>
<!-- serverWrappingKey&#45;&gt;serverWrappingKeyXOR -->
<g id="edge14" class="edge">
<title>serverWrappingKey&#45;&gt;serverWrappingKeyXOR</title>
<path fill="none" stroke="#000000" d="M721.4941,-477.5518C701.4823,-467.8593 675.4911,-455.2255 644.8628,-440.1351"/>
<polygon fill="#000000" stroke="#000000" points="646.175,-436.8798 635.6584,-435.595 643.0784,-443.1577 646.175,-436.8798"/>
</g>
<!-- clientWrappedEncryptionKey -->
<g id="node15" class="node">
<title>clientWrappedEncryptionKey</title>
<ellipse fill="none" stroke="#000000" cx="610.5473" cy="-350" rx="116.1796" ry="18"/>
<text text-anchor="middle" x="610.5473" y="-346.3" font-family="Times,serif" font-size="14.00" fill="#000000">clientWrappedEncryptionKey</text>
</g>
<!-- serverWrappingKeyXOR&#45;&gt;clientWrappedEncryptionKey -->
<g id="edge15" class="edge">
<title>serverWrappingKeyXOR&#45;&gt;clientWrappedEncryptionKey</title>
<path fill="none" stroke="#000000" d="M609.052,-403.8314C609.2659,-396.131 609.5202,-386.9743 609.7579,-378.4166"/>
<polygon fill="#000000" stroke="#000000" points="613.2567,-378.5066 610.0358,-368.4133 606.2594,-378.3122 613.2567,-378.5066"/>
</g>
<!-- serverEncryptionXOR -->
<g id="node21" class="node">
<title>serverEncryptionXOR</title>
<polygon fill="none" stroke="#000000" points="815.5473,-296 761.5473,-296 761.5473,-260 815.5473,-260 815.5473,-296"/>
<text text-anchor="middle" x="788.5473" y="-274.3" font-family="Times,serif" font-size="14.00" fill="#000000">XOR</text>
</g>
<!-- clientWrappedEncryptionKey&#45;&gt;serverEncryptionXOR -->
<g id="edge21" class="edge">
<title>clientWrappedEncryptionKey&#45;&gt;serverEncryptionXOR</title>
<path fill="none" stroke="#000000" d="M652.2804,-333.1192C682.5615,-320.8707 723.1266,-304.4623 752.1063,-292.7402"/>
<polygon fill="#000000" stroke="#000000" points="753.5006,-295.9517 761.4585,-288.9573 750.8757,-289.4625 753.5006,-295.9517"/>
</g>
<!-- clientWrappingKeyXOR -->
<g id="node28" class="node">
<title>clientWrappingKeyXOR</title>
<polygon fill="none" stroke="#000000" points="375.5473,-296 321.5473,-296 321.5473,-260 375.5473,-260 375.5473,-296"/>
<text text-anchor="middle" x="348.5473" y="-274.3" font-family="Times,serif" font-size="14.00" fill="#000000">XOR</text>
</g>
<!-- clientWrappedEncryptionKey&#45;&gt;clientWrappingKeyXOR -->
<g id="edge32" class="edge">
<title>clientWrappedEncryptionKey&#45;&gt;clientWrappingKeyXOR</title>
<path fill="none" stroke="#000000" d="M553.374,-334.2883C502.3563,-320.2681 429.1576,-300.1525 385.4802,-288.1495"/>
<polygon fill="#000000" stroke="#000000" points="386.1413,-284.7015 375.5713,-285.4265 384.2864,-291.4513 386.1413,-284.7015"/>
</g>
<!-- tokenID -->
<g id="node17" class="node">
<title>tokenID</title>
<ellipse fill="none" stroke="#000000" cx="693.5473" cy="-422" rx="39.7935" ry="18"/>
<text text-anchor="middle" x="693.5473" y="-418.3" font-family="Times,serif" font-size="14.00" fill="#000000">tokenID</text>
</g>
<!-- keyAccessToken&#45;&gt;tokenID -->
<g id="edge17" class="edge">
<title>keyAccessToken&#45;&gt;tokenID</title>
<path fill="none" stroke="#000000" d="M877.9398,-480.8832C840.4483,-470.5082 787.4191,-455.272 741.5473,-440 738.8557,-439.1039 736.0902,-438.1519 733.3109,-437.1718"/>
<polygon fill="#000000" stroke="#000000" points="734.4903,-433.8765 723.896,-433.7716 732.1126,-440.4603 734.4903,-433.8765"/>
</g>
<!-- keyRequestToken -->
<g id="node18" class="node">
<title>keyRequestToken</title>
<ellipse fill="none" stroke="#000000" cx="1048.5473" cy="-422" rx="74.187" ry="18"/>
<text text-anchor="middle" x="1048.5473" y="-418.3" font-family="Times,serif" font-size="14.00" fill="#000000">keyRequestToken</text>
</g>
<!-- keyAccessToken&#45;&gt;keyRequestToken -->
<g id="edge18" class="edge">
<title>keyAccessToken&#45;&gt;keyRequestToken</title>
<path fill="none" stroke="#000000" d="M954.8432,-477.3008C971.66,-467.3761 993.1849,-454.6729 1011.3627,-443.945"/>
<polygon fill="#000000" stroke="#000000" points="1013.149,-446.9549 1019.9822,-438.8581 1009.5912,-440.9264 1013.149,-446.9549"/>
</g>
<!-- requestAuthenticationKey -->
<g id="node19" class="node">
<title>requestAuthenticationKey</title>
<ellipse fill="none" stroke="#000000" cx="853.5473" cy="-422" rx="102.8821" ry="18"/>
<text text-anchor="middle" x="853.5473" y="-418.3" font-family="Times,serif" font-size="14.00" fill="#000000">requestAuthenticationKey</text>
</g>
<!-- keyAccessToken&#45;&gt;requestAuthenticationKey -->
<g id="edge19" class="edge">
<title>keyAccessToken&#45;&gt;requestAuthenticationKey</title>
<path fill="none" stroke="#000000" d="M908.5023,-476.2022C899.5527,-467.3752 888.5943,-456.5669 878.8242,-446.9307"/>
<polygon fill="#000000" stroke="#000000" points="881.2151,-444.3728 871.6376,-439.8425 876.2996,-449.3566 881.2151,-444.3728"/>
</g>
<!-- responseEncryptionKey -->
<g id="node20" class="node">
<title>responseEncryptionKey</title>
<ellipse fill="none" stroke="#000000" cx="843.5473" cy="-350" rx="94.7833" ry="18"/>
<text text-anchor="middle" x="843.5473" y="-346.3" font-family="Times,serif" font-size="14.00" fill="#000000">responseEncryptionKey</text>
</g>
<!-- keyRequestToken&#45;&gt;responseEncryptionKey -->
<g id="edge20" class="edge">
<title>keyRequestToken&#45;&gt;responseEncryptionKey</title>
<path fill="none" stroke="#000000" d="M1006.0712,-407.0816C974.903,-396.1347 932.302,-381.1724 898.535,-369.3127"/>
<polygon fill="#000000" stroke="#000000" points="899.4078,-365.9098 888.813,-365.8982 897.0882,-372.5143 899.4078,-365.9098"/>
</g>
<!-- responseAuthenticationKey -->
<g id="node23" class="node">
<title>responseAuthenticationKey</title>
<ellipse fill="none" stroke="#000000" cx="1038.5473" cy="-278" rx="108.5808" ry="18"/>
<text text-anchor="middle" x="1038.5473" y="-274.3" font-family="Times,serif" font-size="14.00" fill="#000000">responseAuthenticationKey</text>
</g>
<!-- keyRequestToken&#45;&gt;responseAuthenticationKey -->
<g id="edge24" class="edge">
<title>keyRequestToken&#45;&gt;responseAuthenticationKey</title>
<path fill="none" stroke="#000000" d="M1047.2808,-403.7623C1045.5751,-379.201 1042.5228,-335.2474 1040.5163,-306.3541"/>
<polygon fill="#000000" stroke="#000000" points="1043.988,-305.8231 1039.8035,-296.0896 1037.0048,-306.3081 1043.988,-305.8231"/>
</g>
<!-- responseEncryptionKey&#45;&gt;serverEncryptionXOR -->
<g id="edge22" class="edge">
<title>responseEncryptionKey&#45;&gt;serverEncryptionXOR</title>
<path fill="none" stroke="#000000" d="M829.6685,-331.8314C823.3337,-323.5386 815.7089,-313.557 808.7547,-304.4533"/>
<polygon fill="#000000" stroke="#000000" points="811.4648,-302.2353 802.613,-296.4133 805.9021,-306.4847 811.4648,-302.2353"/>
</g>
<!-- clientEncryptionXOR -->
<g id="node26" class="node">
<title>clientEncryptionXOR</title>
<polygon fill="none" stroke="#000000" points="870.5473,-108 816.5473,-108 816.5473,-72 870.5473,-72 870.5473,-108"/>
<text text-anchor="middle" x="843.5473" y="-86.3" font-family="Times,serif" font-size="14.00" fill="#000000">XOR</text>
</g>
<!-- responseEncryptionKey&#45;&gt;clientEncryptionXOR -->
<g id="edge28" class="edge">
<title>responseEncryptionKey&#45;&gt;clientEncryptionXOR</title>
<path fill="none" stroke="#000000" d="M843.5473,-331.7173C843.5473,-287.056 843.5473,-172.1448 843.5473,-118.4463"/>
<polygon fill="#000000" stroke="#000000" points="847.0474,-118.2625 843.5473,-108.2625 840.0474,-118.2625 847.0474,-118.2625"/>
</g>
<!-- ciphertext -->
<g id="node22" class="node">
<title>ciphertext</title>
<ellipse fill="none" stroke="#000000" cx="917.5473" cy="-184" rx="46.2923" ry="18"/>
<text text-anchor="middle" x="917.5473" y="-180.3" font-family="Times,serif" font-size="14.00" fill="#000000">ciphertext</text>
</g>
<!-- serverEncryptionXOR&#45;&gt;ciphertext -->
<g id="edge23" class="edge">
<title>serverEncryptionXOR&#45;&gt;ciphertext</title>
<path fill="none" stroke="#000000" d="M813.4198,-259.8759C834.584,-244.4539 865.0419,-222.2597 887.5529,-205.8564"/>
<polygon fill="#000000" stroke="#000000" points="889.7347,-208.5972 895.7554,-199.8794 885.6122,-202.9399 889.7347,-208.5972"/>
</g>
<!-- authenticate -->
<g id="node24" class="node">
<title>authenticate</title>
<polygon fill="none" stroke="#000000" points="1009.5473,-108 927.5473,-108 927.5473,-72 1009.5473,-72 1009.5473,-108"/>
<text text-anchor="middle" x="968.5473" y="-86.3" font-family="Times,serif" font-size="14.00" fill="#000000">authenticate</text>
</g>
<!-- ciphertext&#45;&gt;authenticate -->
<g id="edge25" class="edge">
<title>ciphertext&#45;&gt;authenticate</title>
<path fill="none" stroke="#000000" d="M927.14,-166.3193C934.6656,-152.4486 945.2688,-132.9054 953.8614,-117.0682"/>
<polygon fill="#000000" stroke="#000000" points="956.9572,-118.7014 958.6497,-108.2426 950.8044,-115.3631 956.9572,-118.7014"/>
</g>
<!-- ciphertext&#45;&gt;clientEncryptionXOR -->
<g id="edge29" class="edge">
<title>ciphertext&#45;&gt;clientEncryptionXOR</title>
<path fill="none" stroke="#000000" d="M903.9745,-166.759C892.8177,-152.5867 876.833,-132.2819 864.1062,-116.1153"/>
<polygon fill="#000000" stroke="#000000" points="866.7263,-113.7853 857.7906,-108.0928 861.2261,-118.1152 866.7263,-113.7853"/>
</g>
<!-- responseAuthenticationKey&#45;&gt;authenticate -->
<g id="edge26" class="edge">
<title>responseAuthenticationKey&#45;&gt;authenticate</title>
<path fill="none" stroke="#000000" d="M1031.8354,-259.9738C1019.5584,-227.0014 993.4118,-156.779 978.8612,-117.7001"/>
<polygon fill="#000000" stroke="#000000" points="982.1112,-116.3981 975.3417,-108.2479 975.5511,-118.8407 982.1112,-116.3981"/>
</g>
<!-- mac -->
<g id="node25" class="node">
<title>mac</title>
<ellipse fill="none" stroke="#000000" cx="968.5473" cy="-18" rx="27" ry="18"/>
<text text-anchor="middle" x="968.5473" y="-14.3" font-family="Times,serif" font-size="14.00" fill="#000000">mac</text>
</g>
<!-- authenticate&#45;&gt;mac -->
<g id="edge27" class="edge">
<title>authenticate&#45;&gt;mac</title>
<path fill="none" stroke="#000000" d="M968.5473,-71.8314C968.5473,-64.131 968.5473,-54.9743 968.5473,-46.4166"/>
<polygon fill="#000000" stroke="#000000" points="972.0474,-46.4132 968.5473,-36.4133 965.0474,-46.4133 972.0474,-46.4132"/>
</g>
<!-- clientEncryptionXOR&#45;&gt;clientWrappedEncryptionKey -->
<g id="edge30" class="edge">
<title>clientEncryptionXOR&#45;&gt;clientWrappedEncryptionKey</title>
<path fill="none" stroke="#000000" d="M827.1095,-108.3426C786.2655,-153.9195 680.0973,-272.3905 633.2854,-324.627"/>
<polygon fill="#000000" stroke="#000000" points="630.6296,-322.3461 626.5623,-332.1291 635.8427,-327.0178 630.6296,-322.3461"/>
</g>
<!-- clientWrappingKey&#45;&gt;clientWrappingKeyXOR -->
<g id="edge33" class="edge">
<title>clientWrappingKey&#45;&gt;clientWrappingKeyXOR</title>
<path fill="none" stroke="#000000" d="M117.5896,-547.8566C112.4771,-529.2742 107.1473,-499.8176 115.5473,-476 148.1769,-383.4807 255.1237,-321.3543 312.0823,-293.9556"/>
<polygon fill="#000000" stroke="#000000" points="313.8846,-296.9756 321.4417,-289.5499 310.9033,-290.6422 313.8846,-296.9756"/>
</g>
<!-- encryptionKey -->
<g id="node29" class="node">
<title>encryptionKey</title>
<polygon fill="none" stroke="#000000" points="403.8515,-169.0883 403.8515,-198.9117 371.4551,-220 325.6395,-220 293.243,-198.9117 293.243,-169.0883 325.6395,-148 371.4551,-148 403.8515,-169.0883"/>
<polygon fill="none" stroke="#000000" points="407.8447,-166.9173 407.8447,-201.0827 372.6386,-224 324.456,-224 289.2499,-201.0827 289.2499,-166.9173 324.456,-144 372.6386,-144 407.8447,-166.9173"/>
<text text-anchor="middle" x="348.5473" y="-180.3" font-family="Times,serif" font-size="14.00" fill="#000000">encryptionKey</text>
</g>
<!-- clientWrappingKeyXOR&#45;&gt;encryptionKey -->
<g id="edge34" class="edge">
<title>clientWrappingKeyXOR&#45;&gt;encryptionKey</title>
<path fill="none" stroke="#000000" d="M348.5473,-259.8759C348.5473,-252.511 348.5473,-243.6017 348.5473,-234.5162"/>
<polygon fill="#000000" stroke="#000000" points="352.0474,-234.2564 348.5473,-224.2565 345.0474,-234.2565 352.0474,-234.2564"/>
</g>
<!-- authSalt -->
<g id="node31" class="node">
<title>authSalt</title>
<ellipse fill="none" stroke="#000000" cx="164.5473" cy="-494" rx="39.7935" ry="18"/>
<text text-anchor="middle" x="164.5473" y="-490.3" font-family="Times,serif" font-size="14.00" fill="#000000">authSalt</text>
</g>
<!-- authSalt&#45;&gt;serverDatabase -->
<g id="edge39" class="edge">
<title>authSalt&#45;&gt;serverDatabase</title>
<path fill="none" stroke="#000000" d="M180.3188,-477.3008C188.6977,-468.429 199.1737,-457.3368 208.5394,-447.4201"/>
<polygon fill="#000000" stroke="#000000" points="211.1102,-449.7955 215.4319,-440.1222 206.0211,-444.9891 211.1102,-449.7955"/>
</g>
</g>
</svg>
