<?xml version="1.0" encoding="UTF-8" standalone="no"?>
<!DOCTYPE svg PUBLIC "-//W3C//DTD SVG 1.1//EN"
 "http://www.w3.org/Graphics/SVG/1.1/DTD/svg11.dtd">
<!-- Generated by graphviz version 2.40.1 (20161225.0304)
 -->
<!-- Title: %3 Pages: 1 -->
<svg width="762pt" height="1359pt"
 viewBox="0.00 0.00 761.73 1358.84" xmlns="http://www.w3.org/2000/svg" xmlns:xlink="http://www.w3.org/1999/xlink">
<g id="graph0" class="graph" transform="scale(1 1) rotate(0) translate(4 1354.8398)">
<title>%3</title>
<polygon fill="#ffffff" stroke="transparent" points="-4,4 -4,-1354.8398 757.7297,-1354.8398 757.7297,4 -4,4"/>
<!-- user -->
<g id="node1" class="node">
<title>user</title>
<polygon fill="none" stroke="#000000" points="511.6465,-1350.8398 457.6465,-1350.8398 457.6465,-1314.8398 511.6465,-1314.8398 511.6465,-1350.8398"/>
<text text-anchor="middle" x="484.6465" y="-1329.1398" font-family="Times,serif" font-size="14.00" fill="#000000">user</text>
</g>
<!-- password -->
<g id="node2" class="node">
<title>password</title>
<ellipse fill="none" stroke="#000000" cx="531.6465" cy="-1260.8398" rx="44.393" ry="18"/>
<text text-anchor="middle" x="531.6465" y="-1257.1398" font-family="Times,serif" font-size="14.00" fill="#000000">password</text>
</g>
<!-- user&#45;&gt;password -->
<g id="edge1" class="edge">
<title>user&#45;&gt;password</title>
<path fill="none" stroke="#000000" d="M496.5066,-1314.6711C502.0295,-1306.2104 508.7,-1295.9918 514.7386,-1286.7411"/>
<polygon fill="#000000" stroke="#000000" points="517.7411,-1288.5445 520.2766,-1278.2575 511.8795,-1284.7181 517.7411,-1288.5445"/>
</g>
<!-- email -->
<g id="node3" class="node">
<title>email</title>
<ellipse fill="none" stroke="#000000" cx="438.6465" cy="-1260.8398" rx="30.5947" ry="18"/>
<text text-anchor="middle" x="438.6465" y="-1257.1398" font-family="Times,serif" font-size="14.00" fill="#000000">email</text>
</g>
<!-- user&#45;&gt;email -->
<g id="edge2" class="edge">
<title>user&#45;&gt;email</title>
<path fill="none" stroke="#000000" d="M473.0387,-1314.6711C467.5526,-1306.0842 460.9096,-1295.6864 454.9304,-1286.3276"/>
<polygon fill="#000000" stroke="#000000" points="457.7939,-1284.3086 449.4605,-1277.766 451.895,-1288.0774 457.7939,-1284.3086"/>
</g>
<!-- clientStretch -->
<g id="node4" class="node">
<title>clientStretch</title>
<polygon fill="none" stroke="#000000" points="558.6465,-1206.8398 504.6465,-1206.8398 504.6465,-1168.8398 558.6465,-1168.8398 558.6465,-1206.8398"/>
<text text-anchor="middle" x="531.6465" y="-1191.6398" font-family="Times,serif" font-size="14.00" fill="#000000">client</text>
<text text-anchor="middle" x="531.6465" y="-1176.6398" font-family="Times,serif" font-size="14.00" fill="#000000">stretch</text>
</g>
<!-- password&#45;&gt;clientStretch -->
<g id="edge3" class="edge">
<title>password&#45;&gt;clientStretch</title>
<path fill="none" stroke="#000000" d="M531.6465,-1242.7948C531.6465,-1235.0505 531.6465,-1225.8019 531.6465,-1217.1209"/>
<polygon fill="#000000" stroke="#000000" points="535.1466,-1216.9526 531.6465,-1206.9526 528.1466,-1216.9526 535.1466,-1216.9526"/>
</g>
<!-- email&#45;&gt;clientStretch -->
<g id="edge4" class="edge">
<title>email&#45;&gt;clientStretch</title>
<path fill="none" stroke="#000000" d="M457.0203,-1246.4173C469.0565,-1236.9695 485.12,-1224.3606 499.26,-1213.2614"/>
<polygon fill="#000000" stroke="#000000" points="501.6131,-1215.8639 507.3181,-1206.9362 497.2909,-1210.3576 501.6131,-1215.8639"/>
</g>
<!-- serverDatabase -->
<g id="node31" class="node">
<title>serverDatabase</title>
<path fill="none" stroke="#000000" d="M406.1465,-562.0743C406.1465,-564.7078 392.0277,-566.8471 374.6465,-566.8471 357.2653,-566.8471 343.1465,-564.7078 343.1465,-562.0743 343.1465,-562.0743 343.1465,-519.1187 343.1465,-519.1187 343.1465,-516.4852 357.2653,-514.3459 374.6465,-514.3459 392.0277,-514.3459 406.1465,-516.4852 406.1465,-519.1187 406.1465,-519.1187 406.1465,-562.0743 406.1465,-562.0743"/>
<path fill="none" stroke="#000000" d="M406.1465,-562.0743C406.1465,-559.4407 392.0277,-557.3014 374.6465,-557.3014 357.2653,-557.3014 343.1465,-559.4407 343.1465,-562.0743"/>
<text text-anchor="middle" x="374.6465" y="-544.3965" font-family="Times,serif" font-size="14.00" fill="#000000">server</text>
<text text-anchor="middle" x="374.6465" y="-529.3965" font-family="Times,serif" font-size="14.00" fill="#000000">database</text>
</g>
<!-- email&#45;&gt;serverDatabase -->
<g id="edge37" class="edge">
<title>email&#45;&gt;serverDatabase</title>
<path fill="none" stroke="#000000" d="M436.6971,-1242.6262C431.369,-1196.0176 414.7038,-1068.9939 381.6465,-968.1463 376.135,-951.3324 370.1136,-948.9748 364.6465,-932.1463 349.1395,-884.414 348.3336,-871.1617 343.6465,-821.193 335.0495,-729.5421 325.3924,-704.2984 343.6465,-614.0732 346.2204,-601.351 351.0665,-588.0929 356.1755,-576.3975"/>
<polygon fill="#000000" stroke="#000000" points="359.5035,-577.5363 360.4847,-566.987 353.139,-574.6218 359.5035,-577.5363"/>
</g>
<!-- clientStretchedPassword -->
<g id="node5" class="node">
<title>clientStretchedPassword</title>
<ellipse fill="none" stroke="#000000" cx="532.6465" cy="-1095.3631" rx="48.1667" ry="37.4533"/>
<text text-anchor="middle" x="532.6465" y="-1106.6631" font-family="Times,serif" font-size="14.00" fill="#000000">client</text>
<text text-anchor="middle" x="532.6465" y="-1091.6631" font-family="Times,serif" font-size="14.00" fill="#000000">stretched</text>
<text text-anchor="middle" x="532.6465" y="-1076.6631" font-family="Times,serif" font-size="14.00" fill="#000000">password</text>
</g>
<!-- clientStretch&#45;&gt;clientStretchedPassword -->
<g id="edge5" class="edge">
<title>clientStretch&#45;&gt;clientStretchedPassword</title>
<path fill="none" stroke="#000000" d="M531.8537,-1168.6785C531.9343,-1161.2215 532.0306,-1152.3138 532.1279,-1143.3192"/>
<polygon fill="#000000" stroke="#000000" points="535.6289,-1143.2372 532.2373,-1133.1999 528.6293,-1143.1615 535.6289,-1143.2372"/>
</g>
<!-- authenticationToken -->
<g id="node6" class="node">
<title>authenticationToken</title>
<ellipse fill="none" stroke="#000000" cx="532.6465" cy="-995.0164" rx="65.5227" ry="26.7407"/>
<text text-anchor="middle" x="532.6465" y="-998.8164" font-family="Times,serif" font-size="14.00" fill="#000000">authentication</text>
<text text-anchor="middle" x="532.6465" y="-983.8164" font-family="Times,serif" font-size="14.00" fill="#000000">token</text>
</g>
<!-- clientStretchedPassword&#45;&gt;authenticationToken -->
<g id="edge6" class="edge">
<title>clientStretchedPassword&#45;&gt;authenticationToken</title>
<path fill="none" stroke="#000000" d="M532.6465,-1057.7122C532.6465,-1049.3442 532.6465,-1040.4797 532.6465,-1032.1333"/>
<polygon fill="#000000" stroke="#000000" points="536.1466,-1031.9146 532.6465,-1021.9147 529.1466,-1031.9147 536.1466,-1031.9146"/>
</g>
<!-- clientWrappingKey -->
<g id="node28" class="node">
<title>clientWrappingKey</title>
<ellipse fill="none" stroke="#000000" cx="705.6465" cy="-894.6697" rx="48.1667" ry="37.4533"/>
<text text-anchor="middle" x="705.6465" y="-905.9697" font-family="Times,serif" font-size="14.00" fill="#000000">client</text>
<text text-anchor="middle" x="705.6465" y="-890.9697" font-family="Times,serif" font-size="14.00" fill="#000000">wrapping</text>
<text text-anchor="middle" x="705.6465" y="-875.9697" font-family="Times,serif" font-size="14.00" fill="#000000">key</text>
</g>
<!-- clientStretchedPassword&#45;&gt;clientWrappingKey -->
<g id="edge33" class="edge">
<title>clientStretchedPassword&#45;&gt;clientWrappingKey</title>
<path fill="none" stroke="#000000" d="M563.9072,-1066.6153C577.756,-1053.4112 593.9715,-1037.2899 607.6465,-1021.8864 632.0918,-994.3512 657.3974,-961.3677 676.1695,-935.8861"/>
<polygon fill="#000000" stroke="#000000" points="679.1892,-937.6865 682.2745,-927.5508 673.5419,-933.5502 679.1892,-937.6865"/>
</g>
<!-- serverStretch -->
<g id="node9" class="node">
<title>serverStretch</title>
<polygon fill="none" stroke="#000000" points="427.6465,-913.6697 373.6465,-913.6697 373.6465,-875.6697 427.6465,-875.6697 427.6465,-913.6697"/>
<text text-anchor="middle" x="400.6465" y="-898.4697" font-family="Times,serif" font-size="14.00" fill="#000000">server</text>
<text text-anchor="middle" x="400.6465" y="-883.4697" font-family="Times,serif" font-size="14.00" fill="#000000">stretch</text>
</g>
<!-- authenticationToken&#45;&gt;serverStretch -->
<g id="edge8" class="edge">
<title>authenticationToken&#45;&gt;serverStretch</title>
<path fill="none" stroke="#000000" d="M501.3643,-971.2356C481.1283,-955.8521 454.8051,-935.8412 434.1447,-920.1351"/>
<polygon fill="#000000" stroke="#000000" points="436.0373,-917.1773 425.9583,-913.9118 431.801,-922.75 436.0373,-917.1773"/>
</g>
<!-- random -->
<g id="node7" class="node">
<title>random</title>
<polygon fill="none" stroke="#000000" points="289.1465,-1113.3631 230.1465,-1113.3631 230.1465,-1077.3631 289.1465,-1077.3631 289.1465,-1113.3631"/>
<text text-anchor="middle" x="259.6465" y="-1091.6631" font-family="Times,serif" font-size="14.00" fill="#000000">random</text>
</g>
<!-- authenticationSalt -->
<g id="node8" class="node">
<title>authenticationSalt</title>
<ellipse fill="none" stroke="#000000" cx="306.6465" cy="-995.0164" rx="65.5227" ry="26.7407"/>
<text text-anchor="middle" x="306.6465" y="-998.8164" font-family="Times,serif" font-size="14.00" fill="#000000">authentication</text>
<text text-anchor="middle" x="306.6465" y="-983.8164" font-family="Times,serif" font-size="14.00" fill="#000000">salt</text>
</g>
<!-- random&#45;&gt;authenticationSalt -->
<g id="edge7" class="edge">
<title>random&#45;&gt;authenticationSalt</title>
<path fill="none" stroke="#000000" d="M268.267,-1076.958C274.2802,-1064.1195 282.5016,-1046.5667 289.7928,-1030.9996"/>
<polygon fill="#000000" stroke="#000000" points="293.1123,-1032.1639 294.1844,-1021.6235 286.7732,-1029.1948 293.1123,-1032.1639"/>
</g>
<!-- serverWrappedEncryptionKey -->
<g id="node12" class="node">
<title>serverWrappedEncryptionKey</title>
<ellipse fill="none" stroke="#000000" cx="534.6465" cy="-662.1564" rx="52.1524" ry="48.1667"/>
<text text-anchor="middle" x="534.6465" y="-680.9564" font-family="Times,serif" font-size="14.00" fill="#000000">server</text>
<text text-anchor="middle" x="534.6465" y="-665.9564" font-family="Times,serif" font-size="14.00" fill="#000000">wrapped</text>
<text text-anchor="middle" x="534.6465" y="-650.9564" font-family="Times,serif" font-size="14.00" fill="#000000">encryption</text>
<text text-anchor="middle" x="534.6465" y="-635.9564" font-family="Times,serif" font-size="14.00" fill="#000000">key</text>
</g>
<!-- random&#45;&gt;serverWrappedEncryptionKey -->
<g id="edge12" class="edge">
<title>random&#45;&gt;serverWrappedEncryptionKey</title>
<path fill="none" stroke="#000000" d="M289.1857,-1082.5601C315.7078,-1069.9853 354.5301,-1048.7934 381.6465,-1021.8864 466.8255,-937.3652 507.3281,-797.9963 524.2352,-719.8618"/>
<polygon fill="#000000" stroke="#000000" points="527.7354,-720.225 526.3717,-709.7183 520.8857,-718.7822 527.7354,-720.225"/>
</g>
<!-- userID -->
<g id="node13" class="node">
<title>userID</title>
<ellipse fill="none" stroke="#000000" cx="224.6465" cy="-783.7163" rx="34.394" ry="18"/>
<text text-anchor="middle" x="224.6465" y="-780.0163" font-family="Times,serif" font-size="14.00" fill="#000000">userID</text>
</g>
<!-- random&#45;&gt;userID -->
<g id="edge13" class="edge">
<title>random&#45;&gt;userID</title>
<path fill="none" stroke="#000000" d="M250.738,-1077.1497C244.1016,-1062.5828 235.5423,-1041.4327 231.6465,-1021.8864 216.7813,-947.3039 219.6565,-857.014 222.4583,-812.0399"/>
<polygon fill="#000000" stroke="#000000" points="225.963,-812.0854 223.1399,-801.8737 218.9787,-811.6171 225.963,-812.0854"/>
</g>
<!-- keyAccessToken -->
<g id="node17" class="node">
<title>keyAccessToken</title>
<ellipse fill="none" stroke="#000000" cx="162.6465" cy="-662.1564" rx="36.125" ry="37.4533"/>
<text text-anchor="middle" x="162.6465" y="-673.4564" font-family="Times,serif" font-size="14.00" fill="#000000">key</text>
<text text-anchor="middle" x="162.6465" y="-658.4564" font-family="Times,serif" font-size="14.00" fill="#000000">access</text>
<text text-anchor="middle" x="162.6465" y="-643.4564" font-family="Times,serif" font-size="14.00" fill="#000000">token</text>
</g>
<!-- random&#45;&gt;keyAccessToken -->
<g id="edge18" class="edge">
<title>random&#45;&gt;keyAccessToken</title>
<path fill="none" stroke="#000000" d="M248.1269,-1077.3338C239.3735,-1062.8683 227.6772,-1041.765 220.6465,-1021.8864 182.6765,-914.53 169.4273,-780.288 164.9072,-710.051"/>
<polygon fill="#000000" stroke="#000000" points="168.3814,-709.5204 164.2779,-699.7525 161.3944,-709.9474 168.3814,-709.5204"/>
</g>
<!-- authenticationSalt&#45;&gt;serverStretch -->
<g id="edge9" class="edge">
<title>authenticationSalt&#45;&gt;serverStretch</title>
<path fill="none" stroke="#000000" d="M330.3667,-969.6947C344.1685,-954.9609 361.5535,-936.4021 375.5794,-921.4292"/>
<polygon fill="#000000" stroke="#000000" points="378.2888,-923.6564 382.571,-913.9655 373.1801,-918.8709 378.2888,-923.6564"/>
</g>
<!-- authenticationSalt&#45;&gt;serverDatabase -->
<g id="edge38" class="edge">
<title>authenticationSalt&#45;&gt;serverDatabase</title>
<path fill="none" stroke="#000000" d="M300.764,-967.9855C288.1142,-903.9356 263.14,-738.9436 310.6465,-614.0732 314.2066,-604.7155 328.1569,-588.3028 342.1281,-573.3598"/>
<polygon fill="#000000" stroke="#000000" points="345.0313,-575.3855 349.3811,-565.7247 339.9562,-570.5643 345.0313,-575.3855"/>
</g>
<!-- serverStretchedPassword -->
<g id="node10" class="node">
<title>serverStretchedPassword</title>
<ellipse fill="none" stroke="#000000" cx="400.6465" cy="-783.7163" rx="48.1667" ry="37.4533"/>
<text text-anchor="middle" x="400.6465" y="-795.0163" font-family="Times,serif" font-size="14.00" fill="#000000">server</text>
<text text-anchor="middle" x="400.6465" y="-780.0163" font-family="Times,serif" font-size="14.00" fill="#000000">stretched</text>
<text text-anchor="middle" x="400.6465" y="-765.0163" font-family="Times,serif" font-size="14.00" fill="#000000">password</text>
</g>
<!-- serverStretch&#45;&gt;serverStretchedPassword -->
<g id="edge10" class="edge">
<title>serverStretch&#45;&gt;serverStretchedPassword</title>
<path fill="none" stroke="#000000" d="M400.6465,-875.5961C400.6465,-863.3979 400.6465,-846.9955 400.6465,-831.4259"/>
<polygon fill="#000000" stroke="#000000" points="404.1466,-831.3671 400.6465,-821.3671 397.1466,-831.3672 404.1466,-831.3671"/>
</g>
<!-- verificationHash -->
<g id="node11" class="node">
<title>verificationHash</title>
<ellipse fill="none" stroke="#000000" cx="408.6465" cy="-662.1564" rx="55.7232" ry="26.7407"/>
<text text-anchor="middle" x="408.6465" y="-665.9564" font-family="Times,serif" font-size="14.00" fill="#000000">verification</text>
<text text-anchor="middle" x="408.6465" y="-650.9564" font-family="Times,serif" font-size="14.00" fill="#000000">hash</text>
</g>
<!-- serverStretchedPassword&#45;&gt;verificationHash -->
<g id="edge11" class="edge">
<title>serverStretchedPassword&#45;&gt;verificationHash</title>
<path fill="none" stroke="#000000" d="M403.112,-746.2525C404.0873,-731.4328 405.2061,-714.4333 406.1813,-699.6143"/>
<polygon fill="#000000" stroke="#000000" points="409.6977,-699.4797 406.862,-689.2714 402.7128,-699.0199 409.6977,-699.4797"/>
</g>
<!-- serverWrappingKey -->
<g id="node14" class="node">
<title>serverWrappingKey</title>
<ellipse fill="none" stroke="#000000" cx="652.6465" cy="-662.1564" rx="48.1667" ry="37.4533"/>
<text text-anchor="middle" x="652.6465" y="-673.4564" font-family="Times,serif" font-size="14.00" fill="#000000">server</text>
<text text-anchor="middle" x="652.6465" y="-658.4564" font-family="Times,serif" font-size="14.00" fill="#000000">wrapping</text>
<text text-anchor="middle" x="652.6465" y="-643.4564" font-family="Times,serif" font-size="14.00" fill="#000000">key</text>
</g>
<!-- serverStretchedPassword&#45;&gt;serverWrappingKey -->
<g id="edge14" class="edge">
<title>serverStretchedPassword&#45;&gt;serverWrappingKey</title>
<path fill="none" stroke="#000000" d="M446.3599,-771.3256C487.1815,-759.1588 547.7478,-738.3397 595.6465,-710.2397 601.9418,-706.5465 608.2286,-702.1482 614.2054,-697.5343"/>
<polygon fill="#000000" stroke="#000000" points="616.5373,-700.1504 622.1352,-691.1551 612.1496,-694.6962 616.5373,-700.1504"/>
</g>
<!-- verificationHash&#45;&gt;serverDatabase -->
<g id="edge39" class="edge">
<title>verificationHash&#45;&gt;serverDatabase</title>
<path fill="none" stroke="#000000" d="M401.185,-635.4796C396.3467,-618.181 389.9842,-595.4331 384.7019,-576.5475"/>
<polygon fill="#000000" stroke="#000000" points="388.0379,-575.4808 381.9736,-566.7932 381.2967,-577.3664 388.0379,-575.4808"/>
</g>
<!-- serverWrappingKeyXOR -->
<g id="node15" class="node">
<title>serverWrappingKeyXOR</title>
<polygon fill="none" stroke="#000000" points="579.6465,-558.5965 525.6465,-558.5965 525.6465,-522.5965 579.6465,-522.5965 579.6465,-558.5965"/>
<text text-anchor="middle" x="552.6465" y="-536.8965" font-family="Times,serif" font-size="14.00" fill="#000000">XOR</text>
</g>
<!-- serverWrappedEncryptionKey&#45;&gt;serverWrappingKeyXOR -->
<g id="edge15" class="edge">
<title>serverWrappedEncryptionKey&#45;&gt;serverWrappingKeyXOR</title>
<path fill="none" stroke="#000000" d="M541.7089,-614.4616C543.9938,-599.0312 546.4535,-582.4195 548.4606,-568.8648"/>
<polygon fill="#000000" stroke="#000000" points="551.9587,-569.1354 549.9613,-558.7306 545.0342,-568.11 551.9587,-569.1354"/>
</g>
<!-- serverWrappedEncryptionKey&#45;&gt;serverDatabase -->
<g id="edge40" class="edge">
<title>serverWrappedEncryptionKey&#45;&gt;serverDatabase</title>
<path fill="none" stroke="#000000" d="M495.0731,-630.692C487.9673,-625.1197 480.6083,-619.3987 473.6465,-614.0732 454.3338,-599.2996 432.6663,-583.1688 414.537,-569.7945"/>
<polygon fill="#000000" stroke="#000000" points="416.6048,-566.9707 406.4775,-563.8583 412.4535,-572.6069 416.6048,-566.9707"/>
</g>
<!-- userID&#45;&gt;serverDatabase -->
<g id="edge41" class="edge">
<title>userID&#45;&gt;serverDatabase</title>
<path fill="none" stroke="#000000" d="M225.4061,-765.6527C227.6722,-732.3303 236.698,-660.3699 272.6465,-614.0732 292.1887,-588.9055 309.0782,-597.0882 334.6465,-578.0732 337.0089,-576.3163 339.3845,-574.4367 341.7356,-572.4897"/>
<polygon fill="#000000" stroke="#000000" points="344.3156,-574.8853 349.58,-565.6909 339.7309,-569.5955 344.3156,-574.8853"/>
</g>
<!-- serverWrappingKey&#45;&gt;serverWrappingKeyXOR -->
<g id="edge16" class="edge">
<title>serverWrappingKey&#45;&gt;serverWrappingKeyXOR</title>
<path fill="none" stroke="#000000" d="M626.6337,-630.5353C610.3007,-610.681 589.4924,-585.3864 574.1057,-566.6824"/>
<polygon fill="#000000" stroke="#000000" points="576.7191,-564.3499 567.6631,-558.8507 571.3132,-568.797 576.7191,-564.3499"/>
</g>
<!-- clientWrappedEncryptionKey -->
<g id="node16" class="node">
<title>clientWrappedEncryptionKey</title>
<ellipse fill="none" stroke="#000000" cx="552.6465" cy="-419.0366" rx="52.1524" ry="48.1667"/>
<text text-anchor="middle" x="552.6465" y="-437.8366" font-family="Times,serif" font-size="14.00" fill="#000000">client</text>
<text text-anchor="middle" x="552.6465" y="-422.8366" font-family="Times,serif" font-size="14.00" fill="#000000">wrapped</text>
<text text-anchor="middle" x="552.6465" y="-407.8366" font-family="Times,serif" font-size="14.00" fill="#000000">encryption</text>
<text text-anchor="middle" x="552.6465" y="-392.8366" font-family="Times,serif" font-size="14.00" fill="#000000">key</text>
</g>
<!-- serverWrappingKeyXOR&#45;&gt;clientWrappedEncryptionKey -->
<g id="edge17" class="edge">
<title>serverWrappingKeyXOR&#45;&gt;clientWrappedEncryptionKey</title>
<path fill="none" stroke="#000000" d="M552.6465,-522.3978C552.6465,-510.331 552.6465,-493.7643 552.6465,-477.4281"/>
<polygon fill="#000000" stroke="#000000" points="556.1466,-477.3285 552.6465,-467.3286 549.1466,-477.3286 556.1466,-477.3285"/>
</g>
<!-- serverEncryptionXOR -->
<g id="node22" class="node">
<title>serverEncryptionXOR</title>
<polygon fill="none" stroke="#000000" points="515.6465,-315.4767 461.6465,-315.4767 461.6465,-279.4767 515.6465,-279.4767 515.6465,-315.4767"/>
<text text-anchor="middle" x="488.6465" y="-293.7767" font-family="Times,serif" font-size="14.00" fill="#000000">XOR</text>
</g>
<!-- clientWrappedEncryptionKey&#45;&gt;serverEncryptionXOR -->
<g id="edge23" class="edge">
<title>clientWrappedEncryptionKey&#45;&gt;serverEncryptionXOR</title>
<path fill="none" stroke="#000000" d="M529.7218,-375.494C520.8362,-358.6169 510.9329,-339.8069 503.077,-324.8855"/>
<polygon fill="#000000" stroke="#000000" points="505.9972,-322.9191 498.2414,-315.7011 499.8032,-326.1802 505.9972,-322.9191"/>
</g>
<!-- clientWrappingKeyXOR -->
<g id="node29" class="node">
<title>clientWrappingKeyXOR</title>
<polygon fill="none" stroke="#000000" points="708.6465,-315.4767 654.6465,-315.4767 654.6465,-279.4767 708.6465,-279.4767 708.6465,-315.4767"/>
<text text-anchor="middle" x="681.6465" y="-293.7767" font-family="Times,serif" font-size="14.00" fill="#000000">XOR</text>
</g>
<!-- clientWrappedEncryptionKey&#45;&gt;clientWrappingKeyXOR -->
<g id="edge34" class="edge">
<title>clientWrappedEncryptionKey&#45;&gt;clientWrappingKeyXOR</title>
<path fill="none" stroke="#000000" d="M589.2676,-384.5275C610.2175,-364.786 636.0263,-340.4657 655.0343,-322.554"/>
<polygon fill="#000000" stroke="#000000" points="657.5957,-324.9495 662.4732,-315.5441 652.795,-319.855 657.5957,-324.9495"/>
</g>
<!-- tokenID -->
<g id="node18" class="node">
<title>tokenID</title>
<ellipse fill="none" stroke="#000000" cx="39.6465" cy="-540.5965" rx="39.7935" ry="18"/>
<text text-anchor="middle" x="39.6465" y="-536.8965" font-family="Times,serif" font-size="14.00" fill="#000000">tokenID</text>
</g>
<!-- keyAccessToken&#45;&gt;tokenID -->
<g id="edge19" class="edge">
<title>keyAccessToken&#45;&gt;tokenID</title>
<path fill="none" stroke="#000000" d="M136.2599,-636.0788C114.759,-614.8296 84.6471,-585.0703 63.7793,-564.4468"/>
<polygon fill="#000000" stroke="#000000" points="66.1153,-561.8346 56.5425,-557.2947 61.1948,-566.8134 66.1153,-561.8346"/>
</g>
<!-- keyRequestToken -->
<g id="node19" class="node">
<title>keyRequestToken</title>
<ellipse fill="none" stroke="#000000" cx="285.6465" cy="-540.5965" rx="39.6962" ry="37.4533"/>
<text text-anchor="middle" x="285.6465" y="-551.8965" font-family="Times,serif" font-size="14.00" fill="#000000">key</text>
<text text-anchor="middle" x="285.6465" y="-536.8965" font-family="Times,serif" font-size="14.00" fill="#000000">request</text>
<text text-anchor="middle" x="285.6465" y="-521.8965" font-family="Times,serif" font-size="14.00" fill="#000000">token</text>
</g>
<!-- keyAccessToken&#45;&gt;keyRequestToken -->
<g id="edge20" class="edge">
<title>keyAccessToken&#45;&gt;keyRequestToken</title>
<path fill="none" stroke="#000000" d="M189.0331,-636.0788C207.0597,-618.2632 231.1392,-594.4656 250.7489,-575.0855"/>
<polygon fill="#000000" stroke="#000000" points="253.3714,-577.4146 258.0237,-567.8959 248.4508,-572.4358 253.3714,-577.4146"/>
</g>
<!-- requestAuthenticationKey -->
<g id="node20" class="node">
<title>requestAuthenticationKey</title>
<ellipse fill="none" stroke="#000000" cx="162.6465" cy="-540.5965" rx="65.5227" ry="37.4533"/>
<text text-anchor="middle" x="162.6465" y="-551.8965" font-family="Times,serif" font-size="14.00" fill="#000000">request</text>
<text text-anchor="middle" x="162.6465" y="-536.8965" font-family="Times,serif" font-size="14.00" fill="#000000">authentication</text>
<text text-anchor="middle" x="162.6465" y="-521.8965" font-family="Times,serif" font-size="14.00" fill="#000000">key</text>
</g>
<!-- keyAccessToken&#45;&gt;requestAuthenticationKey -->
<g id="edge21" class="edge">
<title>keyAccessToken&#45;&gt;requestAuthenticationKey</title>
<path fill="none" stroke="#000000" d="M162.6465,-624.3604C162.6465,-613.0403 162.6465,-600.4728 162.6465,-588.5885"/>
<polygon fill="#000000" stroke="#000000" points="166.1466,-588.3691 162.6465,-578.3691 159.1466,-588.3691 166.1466,-588.3691"/>
</g>
<!-- responseEncryptionKey -->
<g id="node21" class="node">
<title>responseEncryptionKey</title>
<ellipse fill="none" stroke="#000000" cx="429.6465" cy="-419.0366" rx="52.1524" ry="37.4533"/>
<text text-anchor="middle" x="429.6465" y="-430.3366" font-family="Times,serif" font-size="14.00" fill="#000000">response</text>
<text text-anchor="middle" x="429.6465" y="-415.3366" font-family="Times,serif" font-size="14.00" fill="#000000">encryption</text>
<text text-anchor="middle" x="429.6465" y="-400.3366" font-family="Times,serif" font-size="14.00" fill="#000000">key</text>
</g>
<!-- keyRequestToken&#45;&gt;responseEncryptionKey -->
<g id="edge22" class="edge">
<title>keyRequestToken&#45;&gt;responseEncryptionKey</title>
<path fill="none" stroke="#000000" d="M315.4834,-515.4092C336.4291,-497.7275 364.7253,-473.8409 387.9061,-454.2724"/>
<polygon fill="#000000" stroke="#000000" points="390.1696,-456.942 395.5533,-447.8169 385.6542,-451.593 390.1696,-456.942"/>
</g>
<!-- responseAuthenticationKey -->
<g id="node24" class="node">
<title>responseAuthenticationKey</title>
<ellipse fill="none" stroke="#000000" cx="285.6465" cy="-297.4767" rx="65.5227" ry="37.4533"/>
<text text-anchor="middle" x="285.6465" y="-308.7767" font-family="Times,serif" font-size="14.00" fill="#000000">response</text>
<text text-anchor="middle" x="285.6465" y="-293.7767" font-family="Times,serif" font-size="14.00" fill="#000000">authentication</text>
<text text-anchor="middle" x="285.6465" y="-278.7767" font-family="Times,serif" font-size="14.00" fill="#000000">key</text>
</g>
<!-- keyRequestToken&#45;&gt;responseAuthenticationKey -->
<g id="edge26" class="edge">
<title>keyRequestToken&#45;&gt;responseAuthenticationKey</title>
<path fill="none" stroke="#000000" d="M285.6465,-502.8758C285.6465,-460.4689 285.6465,-391.5207 285.6465,-345.3495"/>
<polygon fill="#000000" stroke="#000000" points="289.1466,-345.2858 285.6465,-335.2859 282.1466,-345.2859 289.1466,-345.2858"/>
</g>
<!-- responseEncryptionKey&#45;&gt;serverEncryptionXOR -->
<g id="edge24" class="edge">
<title>responseEncryptionKey&#45;&gt;serverEncryptionXOR</title>
<path fill="none" stroke="#000000" d="M446.8703,-383.5496C455.9964,-364.7468 467.0303,-342.0132 475.4662,-324.6325"/>
<polygon fill="#000000" stroke="#000000" points="478.6391,-326.1108 479.8569,-315.5862 472.3417,-323.0542 478.6391,-326.1108"/>
</g>
<!-- clientEncryptionXOR -->
<g id="node27" class="node">
<title>clientEncryptionXOR</title>
<polygon fill="none" stroke="#000000" points="460.6465,-108 406.6465,-108 406.6465,-72 460.6465,-72 460.6465,-108"/>
<text text-anchor="middle" x="433.6465" y="-86.3" font-family="Times,serif" font-size="14.00" fill="#000000">XOR</text>
</g>
<!-- responseEncryptionKey&#45;&gt;clientEncryptionXOR -->
<g id="edge30" class="edge">
<title>responseEncryptionKey&#45;&gt;clientEncryptionXOR</title>
<path fill="none" stroke="#000000" d="M430.1053,-381.2919C430.9148,-314.7076 432.5788,-177.8272 433.3002,-118.4839"/>
<polygon fill="#000000" stroke="#000000" points="436.8016,-118.3818 433.4235,-108.34 429.8021,-118.2966 436.8016,-118.3818"/>
</g>
<!-- ciphertext -->
<g id="node23" class="node">
<title>ciphertext</title>
<ellipse fill="none" stroke="#000000" cx="359.6465" cy="-184" rx="46.2923" ry="18"/>
<text text-anchor="middle" x="359.6465" y="-180.3" font-family="Times,serif" font-size="14.00" fill="#000000">ciphertext</text>
</g>
<!-- serverEncryptionXOR&#45;&gt;ciphertext -->
<g id="edge25" class="edge">
<title>serverEncryptionXOR&#45;&gt;ciphertext</title>
<path fill="none" stroke="#000000" d="M467.9204,-279.2447C445.7806,-259.7691 410.6123,-228.8328 386.3972,-207.5317"/>
<polygon fill="#000000" stroke="#000000" points="388.4598,-204.6846 378.6397,-200.7077 383.8364,-209.9405 388.4598,-204.6846"/>
</g>
<!-- authenticate -->
<g id="node25" class="node">
<title>authenticate</title>
<polygon fill="none" stroke="#000000" points="357.6465,-108 275.6465,-108 275.6465,-72 357.6465,-72 357.6465,-108"/>
<text text-anchor="middle" x="316.6465" y="-86.3" font-family="Times,serif" font-size="14.00" fill="#000000">authenticate</text>
</g>
<!-- ciphertext&#45;&gt;authenticate -->
<g id="edge27" class="edge">
<title>ciphertext&#45;&gt;authenticate</title>
<path fill="none" stroke="#000000" d="M351.3556,-165.8759C345.05,-152.0915 336.2695,-132.8968 329.1177,-117.2627"/>
<polygon fill="#000000" stroke="#000000" points="332.2546,-115.7062 324.9119,-108.0685 325.889,-118.6182 332.2546,-115.7062"/>
</g>
<!-- ciphertext&#45;&gt;clientEncryptionXOR -->
<g id="edge31" class="edge">
<title>ciphertext&#45;&gt;clientEncryptionXOR</title>
<path fill="none" stroke="#000000" d="M373.2192,-166.759C384.3761,-152.5867 400.3607,-132.2819 413.0876,-116.1153"/>
<polygon fill="#000000" stroke="#000000" points="415.9676,-118.1152 419.4032,-108.0928 410.4675,-113.7853 415.9676,-118.1152"/>
</g>
<!-- responseAuthenticationKey&#45;&gt;authenticate -->
<g id="edge28" class="edge">
<title>responseAuthenticationKey&#45;&gt;authenticate</title>
<path fill="none" stroke="#000000" d="M289.2963,-259.8001C292.5578,-228.6403 297.865,-183.2893 304.6465,-144 306.0936,-135.6157 307.9763,-126.5672 309.8198,-118.3185"/>
<polygon fill="#000000" stroke="#000000" points="313.2686,-118.9378 312.0981,-108.4079 306.4466,-117.3695 313.2686,-118.9378"/>
</g>
<!-- MAC -->
<g id="node26" class="node">
<title>MAC</title>
<ellipse fill="none" stroke="#000000" cx="316.6465" cy="-18" rx="31.3957" ry="18"/>
<text text-anchor="middle" x="316.6465" y="-14.3" font-family="Times,serif" font-size="14.00" fill="#000000">MAC</text>
</g>
<!-- authenticate&#45;&gt;MAC -->
<g id="edge29" class="edge">
<title>authenticate&#45;&gt;MAC</title>
<path fill="none" stroke="#000000" d="M316.6465,-71.8314C316.6465,-64.131 316.6465,-54.9743 316.6465,-46.4166"/>
<polygon fill="#000000" stroke="#000000" points="320.1466,-46.4132 316.6465,-36.4133 313.1466,-46.4133 320.1466,-46.4132"/>
</g>
<!-- clientEncryptionXOR&#45;&gt;clientWrappedEncryptionKey -->
<g id="edge32" class="edge">
<title>clientEncryptionXOR&#45;&gt;clientWrappedEncryptionKey</title>
<path fill="none" stroke="#000000" d="M446.093,-108.469C465.8982,-138.7538 504.4095,-201.4684 524.6465,-260 535.8811,-292.4941 542.7775,-330.3527 546.914,-360.979"/>
<polygon fill="#000000" stroke="#000000" points="543.4648,-361.5988 548.2132,-371.0699 550.4075,-360.7048 543.4648,-361.5988"/>
</g>
<!-- clientWrappingKey&#45;&gt;clientWrappingKeyXOR -->
<g id="edge35" class="edge">
<title>clientWrappingKey&#45;&gt;clientWrappingKeyXOR</title>
<path fill="none" stroke="#000000" d="M711.6294,-857.3305C718.4442,-811.4916 728.6465,-731.3179 728.6465,-662.1564 728.6465,-662.1564 728.6465,-662.1564 728.6465,-540.5965 728.6465,-461.2291 704.2025,-369.8935 690.571,-325.1296"/>
<polygon fill="#000000" stroke="#000000" points="693.9036,-324.0592 687.5991,-315.5444 687.2176,-326.1323 693.9036,-324.0592"/>
</g>
<!-- encryptionKey -->
<g id="node30" class="node">
<title>encryptionKey</title>
<polygon fill="none" stroke="#000000" points="728.9354,-169.0883 728.9354,-198.9117 701.2342,-220 662.0588,-220 634.3575,-198.9117 634.3575,-169.0883 662.0588,-148 701.2342,-148 728.9354,-169.0883"/>
<polygon fill="none" stroke="#000000" points="732.9472,-167.1098 732.9472,-200.8902 702.5907,-224 660.7023,-224 630.3457,-200.8902 630.3457,-167.1098 660.7023,-144 702.5907,-144 732.9472,-167.1098"/>
<text text-anchor="middle" x="681.6465" y="-187.8" font-family="Times,serif" font-size="14.00" fill="#000000">encryption</text>
<text text-anchor="middle" x="681.6465" y="-172.8" font-family="Times,serif" font-size="14.00" fill="#000000">key</text>
</g>
<!-- clientWrappingKeyXOR&#45;&gt;encryptionKey -->
<g id="edge36" class="edge">
<title>clientWrappingKeyXOR&#45;&gt;encryptionKey</title>
<path fill="none" stroke="#000000" d="M681.6465,-279.2447C681.6465,-267.1159 681.6465,-250.5421 681.6465,-234.6188"/>
<polygon fill="#000000" stroke="#000000" points="685.1466,-234.3021 681.6465,-224.3022 678.1466,-234.3022 685.1466,-234.3021"/>
</g>
</g>
</svg>
