<?xml version="1.0" encoding="UTF-8" standalone="no"?>
<!DOCTYPE svg PUBLIC "-//W3C//DTD SVG 1.1//EN"
 "http://www.w3.org/Graphics/SVG/1.1/DTD/svg11.dtd">
<!-- Generated by graphviz version 2.40.1 (20161225.0304)
 -->
<!-- Title: %3 Pages: 1 -->
<svg width="891pt" height="952pt"
 viewBox="0.00 0.00 890.88 952.00" xmlns="http://www.w3.org/2000/svg" xmlns:xlink="http://www.w3.org/1999/xlink">
<g id="graph0" class="graph" transform="scale(1 1) rotate(0) translate(4 948)">
<title>%3</title>
<polygon fill="#ffffff" stroke="transparent" points="-4,4 -4,-948 886.8824,-948 886.8824,4 -4,4"/>
<!-- password -->
<g id="node1" class="node">
<title>password</title>
<ellipse fill="none" stroke="#000000" cx="90.5928" cy="-926" rx="44.393" ry="18"/>
<text text-anchor="middle" x="90.5928" y="-922.3" font-family="Times,serif" font-size="14.00" fill="#000000">password</text>
</g>
<!-- clientStretch -->
<g id="node3" class="node">
<title>clientStretch</title>
<polygon fill="none" stroke="#000000" points="179.0928,-872 94.0928,-872 94.0928,-836 179.0928,-836 179.0928,-872"/>
<text text-anchor="middle" x="136.5928" y="-850.3" font-family="Times,serif" font-size="14.00" fill="#000000">clientStretch</text>
</g>
<!-- password&#45;&gt;clientStretch -->
<g id="edge1" class="edge">
<title>password&#45;&gt;clientStretch</title>
<path fill="none" stroke="#000000" d="M101.7282,-908.5708C107.088,-900.1815 113.6317,-889.9392 119.5962,-880.6035"/>
<polygon fill="#000000" stroke="#000000" points="122.6452,-882.3319 125.0797,-872.0206 116.7463,-878.5632 122.6452,-882.3319"/>
</g>
<!-- email -->
<g id="node2" class="node">
<title>email</title>
<ellipse fill="none" stroke="#000000" cx="183.5928" cy="-926" rx="30.5947" ry="18"/>
<text text-anchor="middle" x="183.5928" y="-922.3" font-family="Times,serif" font-size="14.00" fill="#000000">email</text>
</g>
<!-- email&#45;&gt;clientStretch -->
<g id="edge2" class="edge">
<title>email&#45;&gt;clientStretch</title>
<path fill="none" stroke="#000000" d="M172.4545,-908.937C166.9826,-900.5544 160.2605,-890.2569 154.121,-880.8516"/>
<polygon fill="#000000" stroke="#000000" points="156.87,-878.6598 148.4729,-872.1992 151.0083,-882.4862 156.87,-878.6598"/>
</g>
<!-- clientStretchedPassword -->
<g id="node4" class="node">
<title>clientStretchedPassword</title>
<ellipse fill="none" stroke="#000000" cx="136.5928" cy="-782" rx="96.6831" ry="18"/>
<text text-anchor="middle" x="136.5928" y="-778.3" font-family="Times,serif" font-size="14.00" fill="#000000">clientStretchedPassword</text>
</g>
<!-- clientStretch&#45;&gt;clientStretchedPassword -->
<g id="edge3" class="edge">
<title>clientStretch&#45;&gt;clientStretchedPassword</title>
<path fill="none" stroke="#000000" d="M136.5928,-835.8314C136.5928,-828.131 136.5928,-818.9743 136.5928,-810.4166"/>
<polygon fill="#000000" stroke="#000000" points="140.0929,-810.4132 136.5928,-800.4133 133.0929,-810.4133 140.0929,-810.4132"/>
</g>
<!-- authenticationToken -->
<g id="node5" class="node">
<title>authenticationToken</title>
<ellipse fill="none" stroke="#000000" cx="191.5928" cy="-710" rx="83.3857" ry="18"/>
<text text-anchor="middle" x="191.5928" y="-706.3" font-family="Times,serif" font-size="14.00" fill="#000000">authenticationToken</text>
</g>
<!-- clientStretchedPassword&#45;&gt;authenticationToken -->
<g id="edge4" class="edge">
<title>clientStretchedPassword&#45;&gt;authenticationToken</title>
<path fill="none" stroke="#000000" d="M150.4717,-763.8314C156.9039,-755.411 164.6662,-745.2495 171.7059,-736.0338"/>
<polygon fill="#000000" stroke="#000000" points="174.6199,-737.9848 177.909,-727.9134 169.0572,-733.7355 174.6199,-737.9848"/>
</g>
<!-- clientWrappingKey -->
<g id="node27" class="node">
<title>clientWrappingKey</title>
<ellipse fill="none" stroke="#000000" cx="80.5928" cy="-566" rx="80.6858" ry="18"/>
<text text-anchor="middle" x="80.5928" y="-562.3" font-family="Times,serif" font-size="14.00" fill="#000000">clientWrappingKey</text>
</g>
<!-- clientStretchedPassword&#45;&gt;clientWrappingKey -->
<g id="edge31" class="edge">
<title>clientStretchedPassword&#45;&gt;clientWrappingKey</title>
<path fill="none" stroke="#000000" d="M120.7941,-763.7738C113.0919,-753.8548 104.4606,-740.9822 99.5928,-728 82.8895,-683.4525 79.9269,-627.6022 79.8637,-594.4716"/>
<polygon fill="#000000" stroke="#000000" points="83.3658,-594.181 79.9378,-584.1561 76.366,-594.1307 83.3658,-594.181"/>
</g>
<!-- serverStretch -->
<g id="node8" class="node">
<title>serverStretch</title>
<polygon fill="none" stroke="#000000" points="269.5928,-656 181.5928,-656 181.5928,-620 269.5928,-620 269.5928,-656"/>
<text text-anchor="middle" x="225.5928" y="-634.3" font-family="Times,serif" font-size="14.00" fill="#000000">serverStretch</text>
</g>
<!-- authenticationToken&#45;&gt;serverStretch -->
<g id="edge6" class="edge">
<title>authenticationToken&#45;&gt;serverStretch</title>
<path fill="none" stroke="#000000" d="M200.1725,-691.8314C203.9287,-683.8771 208.4186,-674.369 212.5726,-665.5723"/>
<polygon fill="#000000" stroke="#000000" points="215.7924,-666.9503 216.8977,-656.4133 209.4627,-663.9612 215.7924,-666.9503"/>
</g>
<!-- random -->
<g id="node6" class="node">
<title>random</title>
<polygon fill="none" stroke="#000000" points="565.0928,-800 506.0928,-800 506.0928,-764 565.0928,-764 565.0928,-800"/>
<text text-anchor="middle" x="535.5928" y="-778.3" font-family="Times,serif" font-size="14.00" fill="#000000">random</text>
</g>
<!-- authenticationSalt -->
<g id="node7" class="node">
<title>authenticationSalt</title>
<ellipse fill="none" stroke="#000000" cx="454.5928" cy="-710" rx="74.187" ry="18"/>
<text text-anchor="middle" x="454.5928" y="-706.3" font-family="Times,serif" font-size="14.00" fill="#000000">authenticationSalt</text>
</g>
<!-- random&#45;&gt;authenticationSalt -->
<g id="edge5" class="edge">
<title>random&#45;&gt;authenticationSalt</title>
<path fill="none" stroke="#000000" d="M515.1531,-763.8314C505.0461,-754.8473 492.7092,-743.8812 481.8139,-734.1965"/>
<polygon fill="#000000" stroke="#000000" points="483.9872,-731.4454 474.1878,-727.4177 479.3366,-736.6773 483.9872,-731.4454"/>
</g>
<!-- serverWrappedEncryptionKey -->
<g id="node11" class="node">
<title>serverWrappedEncryptionKey</title>
<ellipse fill="none" stroke="#000000" cx="764.5928" cy="-566" rx="118.0794" ry="18"/>
<text text-anchor="middle" x="764.5928" y="-562.3" font-family="Times,serif" font-size="14.00" fill="#000000">serverWrappedEncryptionKey</text>
</g>
<!-- random&#45;&gt;serverWrappedEncryptionKey -->
<g id="edge10" class="edge">
<title>random&#45;&gt;serverWrappedEncryptionKey</title>
<path fill="none" stroke="#000000" d="M565.3593,-779.4854C601.0333,-774.9727 660.6148,-762.462 697.5928,-728 736.2335,-691.9885 753.2751,-630.3519 760.2443,-594.3836"/>
<polygon fill="#000000" stroke="#000000" points="763.7681,-594.564 762.0965,-584.1018 756.879,-593.3229 763.7681,-594.564"/>
</g>
<!-- userID -->
<g id="node12" class="node">
<title>userID</title>
<ellipse fill="none" stroke="#000000" cx="327.5928" cy="-710" rx="34.394" ry="18"/>
<text text-anchor="middle" x="327.5928" y="-706.3" font-family="Times,serif" font-size="14.00" fill="#000000">userID</text>
</g>
<!-- random&#45;&gt;userID -->
<g id="edge11" class="edge">
<title>random&#45;&gt;userID</title>
<path fill="none" stroke="#000000" d="M506.0487,-772.9595C473.0461,-762.7018 418.1406,-745.1604 371.5928,-728 369.0664,-727.0686 366.4693,-726.0822 363.8605,-725.0701"/>
<polygon fill="#000000" stroke="#000000" points="365.054,-721.7782 354.4681,-721.3438 362.4726,-728.2849 365.054,-721.7782"/>
</g>
<!-- keyAccessToken -->
<g id="node16" class="node">
<title>keyAccessToken</title>
<ellipse fill="none" stroke="#000000" cx="617.5928" cy="-710" rx="70.6878" ry="18"/>
<text text-anchor="middle" x="617.5928" y="-706.3" font-family="Times,serif" font-size="14.00" fill="#000000">keyAccessToken</text>
</g>
<!-- random&#45;&gt;keyAccessToken -->
<g id="edge16" class="edge">
<title>random&#45;&gt;keyAccessToken</title>
<path fill="none" stroke="#000000" d="M556.2849,-763.8314C566.5167,-754.8473 579.006,-743.8812 590.0357,-734.1965"/>
<polygon fill="#000000" stroke="#000000" points="592.5509,-736.6458 597.756,-727.4177 587.9323,-731.3857 592.5509,-736.6458"/>
</g>
<!-- authenticationSalt&#45;&gt;serverStretch -->
<g id="edge7" class="edge">
<title>authenticationSalt&#45;&gt;serverStretch</title>
<path fill="none" stroke="#000000" d="M407.4118,-695.939C374.1229,-685.9238 328.255,-671.9363 279.5768,-656.2786"/>
<polygon fill="#000000" stroke="#000000" points="280.3983,-652.866 269.8066,-653.1255 278.2483,-659.5277 280.3983,-652.866"/>
</g>
<!-- serverStretchedPassword -->
<g id="node9" class="node">
<title>serverStretchedPassword</title>
<ellipse fill="none" stroke="#000000" cx="277.5928" cy="-566" rx="98.5829" ry="18"/>
<text text-anchor="middle" x="277.5928" y="-562.3" font-family="Times,serif" font-size="14.00" fill="#000000">serverStretchedPassword</text>
</g>
<!-- serverStretch&#45;&gt;serverStretchedPassword -->
<g id="edge8" class="edge">
<title>serverStretch&#45;&gt;serverStretchedPassword</title>
<path fill="none" stroke="#000000" d="M238.7146,-619.8314C244.796,-611.411 252.1349,-601.2495 258.7907,-592.0338"/>
<polygon fill="#000000" stroke="#000000" points="261.6378,-594.0695 264.6554,-583.9134 255.9631,-589.971 261.6378,-594.0695"/>
</g>
<!-- verificationHash -->
<g id="node10" class="node">
<title>verificationHash</title>
<ellipse fill="none" stroke="#000000" cx="441.5928" cy="-494" rx="69.5877" ry="18"/>
<text text-anchor="middle" x="441.5928" y="-490.3" font-family="Times,serif" font-size="14.00" fill="#000000">verificationHash</text>
</g>
<!-- serverStretchedPassword&#45;&gt;verificationHash -->
<g id="edge9" class="edge">
<title>serverStretchedPassword&#45;&gt;verificationHash</title>
<path fill="none" stroke="#000000" d="M315.63,-549.3008C339.7945,-538.692 371.1906,-524.9083 396.5927,-513.7561"/>
<polygon fill="#000000" stroke="#000000" points="398.2578,-516.8476 406.0073,-509.6229 395.4439,-510.4381 398.2578,-516.8476"/>
</g>
<!-- serverWrappingKey -->
<g id="node13" class="node">
<title>serverWrappingKey</title>
<ellipse fill="none" stroke="#000000" cx="271.5928" cy="-494" rx="82.5854" ry="18"/>
<text text-anchor="middle" x="271.5928" y="-490.3" font-family="Times,serif" font-size="14.00" fill="#000000">serverWrappingKey</text>
</g>
<!-- serverStretchedPassword&#45;&gt;serverWrappingKey -->
<g id="edge12" class="edge">
<title>serverStretchedPassword&#45;&gt;serverWrappingKey</title>
<path fill="none" stroke="#000000" d="M276.0788,-547.8314C275.4371,-540.131 274.674,-530.9743 273.9609,-522.4166"/>
<polygon fill="#000000" stroke="#000000" points="277.4457,-522.088 273.1273,-512.4133 270.4699,-522.6694 277.4457,-522.088"/>
</g>
<!-- serverWrappingKeyXOR -->
<g id="node14" class="node">
<title>serverWrappingKeyXOR</title>
<polygon fill="none" stroke="#000000" points="298.5928,-440 244.5928,-440 244.5928,-404 298.5928,-404 298.5928,-440"/>
<text text-anchor="middle" x="271.5928" y="-418.3" font-family="Times,serif" font-size="14.00" fill="#000000">XOR</text>
</g>
<!-- serverWrappedEncryptionKey&#45;&gt;serverWrappingKeyXOR -->
<g id="edge13" class="edge">
<title>serverWrappedEncryptionKey&#45;&gt;serverWrappingKeyXOR</title>
<path fill="none" stroke="#000000" d="M723.7352,-548.9277C675.743,-529.3451 593.4192,-497.215 520.5928,-476 446.6051,-454.4466 358.0012,-437.22 308.9404,-428.4131"/>
<polygon fill="#000000" stroke="#000000" points="309.2589,-424.915 298.8009,-426.6121 308.0347,-431.8071 309.2589,-424.915"/>
</g>
<!-- serverWrappingKey&#45;&gt;serverWrappingKeyXOR -->
<g id="edge14" class="edge">
<title>serverWrappingKey&#45;&gt;serverWrappingKeyXOR</title>
<path fill="none" stroke="#000000" d="M271.5928,-475.8314C271.5928,-468.131 271.5928,-458.9743 271.5928,-450.4166"/>
<polygon fill="#000000" stroke="#000000" points="275.0929,-450.4132 271.5928,-440.4133 268.0929,-450.4133 275.0929,-450.4132"/>
</g>
<!-- clientWrappedEncryptionKey -->
<g id="node15" class="node">
<title>clientWrappedEncryptionKey</title>
<ellipse fill="none" stroke="#000000" cx="268.5928" cy="-350" rx="116.1796" ry="18"/>
<text text-anchor="middle" x="268.5928" y="-346.3" font-family="Times,serif" font-size="14.00" fill="#000000">clientWrappedEncryptionKey</text>
</g>
<!-- serverWrappingKeyXOR&#45;&gt;clientWrappedEncryptionKey -->
<g id="edge15" class="edge">
<title>serverWrappingKeyXOR&#45;&gt;clientWrappedEncryptionKey</title>
<path fill="none" stroke="#000000" d="M270.8358,-403.8314C270.515,-396.131 270.1334,-386.9743 269.7769,-378.4166"/>
<polygon fill="#000000" stroke="#000000" points="273.2734,-378.2589 269.3601,-368.4133 266.2795,-378.5503 273.2734,-378.2589"/>
</g>
<!-- serverEncryptionXOR -->
<g id="node21" class="node">
<title>serverEncryptionXOR</title>
<polygon fill="none" stroke="#000000" points="436.5928,-296 382.5928,-296 382.5928,-260 436.5928,-260 436.5928,-296"/>
<text text-anchor="middle" x="409.5928" y="-274.3" font-family="Times,serif" font-size="14.00" fill="#000000">XOR</text>
</g>
<!-- clientWrappedEncryptionKey&#45;&gt;serverEncryptionXOR -->
<g id="edge21" class="edge">
<title>clientWrappedEncryptionKey&#45;&gt;serverEncryptionXOR</title>
<path fill="none" stroke="#000000" d="M302.3659,-332.7542C323.7522,-321.8335 351.3945,-307.7183 373.2564,-296.5548"/>
<polygon fill="#000000" stroke="#000000" points="374.9225,-299.634 382.2368,-291.969 371.739,-293.3997 374.9225,-299.634"/>
</g>
<!-- clientWrappingKeyXOR -->
<g id="node28" class="node">
<title>clientWrappingKeyXOR</title>
<polygon fill="none" stroke="#000000" points="213.5928,-296 159.5928,-296 159.5928,-260 213.5928,-260 213.5928,-296"/>
<text text-anchor="middle" x="186.5928" y="-274.3" font-family="Times,serif" font-size="14.00" fill="#000000">XOR</text>
</g>
<!-- clientWrappedEncryptionKey&#45;&gt;clientWrappingKeyXOR -->
<g id="edge32" class="edge">
<title>clientWrappedEncryptionKey&#45;&gt;clientWrappingKeyXOR</title>
<path fill="none" stroke="#000000" d="M248.3232,-332.2022C238.2479,-323.3557 225.9062,-312.5191 214.9133,-302.8668"/>
<polygon fill="#000000" stroke="#000000" points="217.0226,-300.0611 207.1989,-296.0931 212.404,-305.3212 217.0226,-300.0611"/>
</g>
<!-- tokenID -->
<g id="node17" class="node">
<title>tokenID</title>
<ellipse fill="none" stroke="#000000" cx="550.5928" cy="-638" rx="39.7935" ry="18"/>
<text text-anchor="middle" x="550.5928" y="-634.3" font-family="Times,serif" font-size="14.00" fill="#000000">tokenID</text>
</g>
<!-- keyAccessToken&#45;&gt;tokenID -->
<g id="edge17" class="edge">
<title>keyAccessToken&#45;&gt;tokenID</title>
<path fill="none" stroke="#000000" d="M601.031,-692.2022C592.5918,-683.1332 582.2063,-671.9726 573.0571,-662.1407"/>
<polygon fill="#000000" stroke="#000000" points="575.4201,-659.5422 566.0455,-654.6058 570.2956,-664.3109 575.4201,-659.5422"/>
</g>
<!-- keyRequestToken -->
<g id="node18" class="node">
<title>keyRequestToken</title>
<ellipse fill="none" stroke="#000000" cx="618.5928" cy="-422" rx="74.187" ry="18"/>
<text text-anchor="middle" x="618.5928" y="-418.3" font-family="Times,serif" font-size="14.00" fill="#000000">keyRequestToken</text>
</g>
<!-- keyAccessToken&#45;&gt;keyRequestToken -->
<g id="edge18" class="edge">
<title>keyAccessToken&#45;&gt;keyRequestToken</title>
<path fill="none" stroke="#000000" d="M617.6554,-691.9843C617.8245,-643.2939 618.2915,-508.7961 618.4954,-450.0573"/>
<polygon fill="#000000" stroke="#000000" points="621.9955,-450.021 618.5303,-440.0089 614.9955,-449.9966 621.9955,-450.021"/>
</g>
<!-- requestAuthenticationKey -->
<g id="node19" class="node">
<title>requestAuthenticationKey</title>
<ellipse fill="none" stroke="#000000" cx="390.5928" cy="-638" rx="102.8821" ry="18"/>
<text text-anchor="middle" x="390.5928" y="-634.3" font-family="Times,serif" font-size="14.00" fill="#000000">requestAuthenticationKey</text>
</g>
<!-- keyAccessToken&#45;&gt;requestAuthenticationKey -->
<g id="edge19" class="edge">
<title>keyAccessToken&#45;&gt;requestAuthenticationKey</title>
<path fill="none" stroke="#000000" d="M573.2861,-695.9468C538.0782,-684.7795 488.5059,-669.0561 449.8811,-656.8051"/>
<polygon fill="#000000" stroke="#000000" points="450.9027,-653.4573 440.3125,-653.7701 448.7863,-660.1297 450.9027,-653.4573"/>
</g>
<!-- responseEncryptionKey -->
<g id="node20" class="node">
<title>responseEncryptionKey</title>
<ellipse fill="none" stroke="#000000" cx="497.5928" cy="-350" rx="94.7833" ry="18"/>
<text text-anchor="middle" x="497.5928" y="-346.3" font-family="Times,serif" font-size="14.00" fill="#000000">responseEncryptionKey</text>
</g>
<!-- keyRequestToken&#45;&gt;responseEncryptionKey -->
<g id="edge20" class="edge">
<title>keyRequestToken&#45;&gt;responseEncryptionKey</title>
<path fill="none" stroke="#000000" d="M590.5289,-405.3008C574.2394,-395.6079 553.4958,-383.2646 535.7408,-372.6996"/>
<polygon fill="#000000" stroke="#000000" points="537.1513,-369.4662 526.7679,-367.3603 533.5718,-375.4818 537.1513,-369.4662"/>
</g>
<!-- responseAuthenticationKey -->
<g id="node23" class="node">
<title>responseAuthenticationKey</title>
<ellipse fill="none" stroke="#000000" cx="620.5928" cy="-278" rx="108.5808" ry="18"/>
<text text-anchor="middle" x="620.5928" y="-274.3" font-family="Times,serif" font-size="14.00" fill="#000000">responseAuthenticationKey</text>
</g>
<!-- keyRequestToken&#45;&gt;responseAuthenticationKey -->
<g id="edge24" class="edge">
<title>keyRequestToken&#45;&gt;responseAuthenticationKey</title>
<path fill="none" stroke="#000000" d="M618.8462,-403.7623C619.1873,-379.201 619.7977,-335.2474 620.199,-306.3541"/>
<polygon fill="#000000" stroke="#000000" points="623.7023,-306.1373 620.3416,-296.0896 616.703,-306.04 623.7023,-306.1373"/>
</g>
<!-- responseEncryptionKey&#45;&gt;serverEncryptionXOR -->
<g id="edge22" class="edge">
<title>responseEncryptionKey&#45;&gt;serverEncryptionXOR</title>
<path fill="none" stroke="#000000" d="M475.84,-332.2022C464.9226,-323.2698 451.5254,-312.3085 439.6424,-302.586"/>
<polygon fill="#000000" stroke="#000000" points="441.6626,-299.7167 431.7067,-296.0931 437.2299,-305.1344 441.6626,-299.7167"/>
</g>
<!-- clientEncryptionXOR -->
<g id="node26" class="node">
<title>clientEncryptionXOR</title>
<polygon fill="none" stroke="#000000" points="436.5928,-108 382.5928,-108 382.5928,-72 436.5928,-72 436.5928,-108"/>
<text text-anchor="middle" x="409.5928" y="-86.3" font-family="Times,serif" font-size="14.00" fill="#000000">XOR</text>
</g>
<!-- responseEncryptionKey&#45;&gt;clientEncryptionXOR -->
<g id="edge28" class="edge">
<title>responseEncryptionKey&#45;&gt;clientEncryptionXOR</title>
<path fill="none" stroke="#000000" d="M498.3725,-331.7512C499.2062,-294.3204 497.1675,-207.0762 464.5928,-144 459.0364,-133.2408 450.5359,-123.3406 441.8669,-115.0366"/>
<polygon fill="#000000" stroke="#000000" points="444.0389,-112.2818 434.2751,-108.1685 439.3427,-117.4728 444.0389,-112.2818"/>
</g>
<!-- ciphertext -->
<g id="node22" class="node">
<title>ciphertext</title>
<ellipse fill="none" stroke="#000000" cx="409.5928" cy="-184" rx="46.2923" ry="18"/>
<text text-anchor="middle" x="409.5928" y="-180.3" font-family="Times,serif" font-size="14.00" fill="#000000">ciphertext</text>
</g>
<!-- serverEncryptionXOR&#45;&gt;ciphertext -->
<g id="edge23" class="edge">
<title>serverEncryptionXOR&#45;&gt;ciphertext</title>
<path fill="none" stroke="#000000" d="M409.5928,-259.8759C409.5928,-246.3516 409.5928,-227.6192 409.5928,-212.1514"/>
<polygon fill="#000000" stroke="#000000" points="413.0929,-212.0685 409.5928,-202.0685 406.0929,-212.0685 413.0929,-212.0685"/>
</g>
<!-- authenticate -->
<g id="node24" class="node">
<title>authenticate</title>
<polygon fill="none" stroke="#000000" points="573.5928,-108 491.5928,-108 491.5928,-72 573.5928,-72 573.5928,-108"/>
<text text-anchor="middle" x="532.5928" y="-86.3" font-family="Times,serif" font-size="14.00" fill="#000000">authenticate</text>
</g>
<!-- ciphertext&#45;&gt;authenticate -->
<g id="edge25" class="edge">
<title>ciphertext&#45;&gt;authenticate</title>
<path fill="none" stroke="#000000" d="M430.7373,-167.8408C449.9835,-153.1324 478.6703,-131.2091 500.7002,-114.3733"/>
<polygon fill="#000000" stroke="#000000" points="502.9636,-117.0486 508.7838,-108.1955 498.7131,-111.4868 502.9636,-117.0486"/>
</g>
<!-- ciphertext&#45;&gt;clientEncryptionXOR -->
<g id="edge29" class="edge">
<title>ciphertext&#45;&gt;clientEncryptionXOR</title>
<path fill="none" stroke="#000000" d="M409.5928,-165.8759C409.5928,-152.3516 409.5928,-133.6192 409.5928,-118.1514"/>
<polygon fill="#000000" stroke="#000000" points="413.0929,-118.0685 409.5928,-108.0685 406.0929,-118.0685 413.0929,-118.0685"/>
</g>
<!-- responseAuthenticationKey&#45;&gt;authenticate -->
<g id="edge26" class="edge">
<title>responseAuthenticationKey&#45;&gt;authenticate</title>
<path fill="none" stroke="#000000" d="M612.155,-259.9738C596.6884,-226.9314 563.7114,-156.4806 545.4425,-117.4516"/>
<polygon fill="#000000" stroke="#000000" points="548.5438,-115.821 541.1344,-108.2479 542.204,-118.7886 548.5438,-115.821"/>
</g>
<!-- mac -->
<g id="node25" class="node">
<title>mac</title>
<ellipse fill="none" stroke="#000000" cx="532.5928" cy="-18" rx="27" ry="18"/>
<text text-anchor="middle" x="532.5928" y="-14.3" font-family="Times,serif" font-size="14.00" fill="#000000">mac</text>
</g>
<!-- authenticate&#45;&gt;mac -->
<g id="edge27" class="edge">
<title>authenticate&#45;&gt;mac</title>
<path fill="none" stroke="#000000" d="M532.5928,-71.8314C532.5928,-64.131 532.5928,-54.9743 532.5928,-46.4166"/>
<polygon fill="#000000" stroke="#000000" points="536.0929,-46.4132 532.5928,-36.4133 529.0929,-46.4133 536.0929,-46.4132"/>
</g>
<!-- clientEncryptionXOR&#45;&gt;clientWrappedEncryptionKey -->
<g id="edge30" class="edge">
<title>clientEncryptionXOR&#45;&gt;clientWrappedEncryptionKey</title>
<path fill="none" stroke="#000000" d="M387.4111,-108.0259C376.4524,-117.794 363.6688,-130.5911 354.5928,-144 315.241,-202.1389 288.5194,-281.1453 276.2574,-322.3761"/>
<polygon fill="#000000" stroke="#000000" points="272.8879,-321.4292 273.4526,-332.009 279.6088,-323.3862 272.8879,-321.4292"/>
</g>
<!-- clientWrappingKey&#45;&gt;clientWrappingKeyXOR -->
<g id="edge33" class="edge">
<title>clientWrappingKey&#45;&gt;clientWrappingKeyXOR</title>
<path fill="none" stroke="#000000" d="M82.9145,-547.7846C88.6288,-507.1782 105.7503,-406.9177 143.5928,-332 148.5884,-322.1103 155.584,-312.3208 162.4835,-303.8491"/>
<polygon fill="#000000" stroke="#000000" points="165.1983,-306.0593 169.0006,-296.1702 159.8613,-301.5297 165.1983,-306.0593"/>
</g>
<!-- encryptionKey -->
<g id="node29" class="node">
<title>encryptionKey</title>
<polygon fill="none" stroke="#000000" points="241.8971,-169.0883 241.8971,-198.9117 209.5006,-220 163.6851,-220 131.2886,-198.9117 131.2886,-169.0883 163.6851,-148 209.5006,-148 241.8971,-169.0883"/>
<polygon fill="none" stroke="#000000" points="245.8903,-166.9173 245.8903,-201.0827 210.6841,-224 162.5016,-224 127.2954,-201.0827 127.2954,-166.9173 162.5016,-144 210.6841,-144 245.8903,-166.9173"/>
<text text-anchor="middle" x="186.5928" y="-180.3" font-family="Times,serif" font-size="14.00" fill="#000000">encryptionKey</text>
</g>
<!-- clientWrappingKeyXOR&#45;&gt;encryptionKey -->
<g id="edge34" class="edge">
<title>clientWrappingKeyXOR&#45;&gt;encryptionKey</title>
<path fill="none" stroke="#000000" d="M186.5928,-259.8759C186.5928,-252.511 186.5928,-243.6017 186.5928,-234.5162"/>
<polygon fill="#000000" stroke="#000000" points="190.0929,-234.2564 186.5928,-224.2565 183.0929,-234.2565 190.0929,-234.2564"/>
</g>
</g>
</svg>
