<?xml version="1.0" encoding="UTF-8" standalone="no"?>
<!DOCTYPE svg PUBLIC "-//W3C//DTD SVG 1.1//EN"
 "http://www.w3.org/Graphics/SVG/1.1/DTD/svg11.dtd">
<!-- Generated by graphviz version 2.40.1 (20161225.0304)
 -->
<!-- Title: %3 Pages: 1 -->
<svg width="777pt" height="1322pt"
 viewBox="0.00 0.00 777.15 1321.89" xmlns="http://www.w3.org/2000/svg" xmlns:xlink="http://www.w3.org/1999/xlink">
<g id="graph0" class="graph" transform="scale(1 1) rotate(0) translate(4 1317.8864)">
<title>%3</title>
<polygon fill="#ffffff" stroke="transparent" points="-4,4 -4,-1317.8864 773.1453,-1317.8864 773.1453,4 -4,4"/>
<!-- user -->
<g id="node1" class="node">
<title>user</title>
<polygon fill="none" stroke="#000000" points="103.5473,-1313.8864 49.5473,-1313.8864 49.5473,-1277.8864 103.5473,-1277.8864 103.5473,-1313.8864"/>
<text text-anchor="middle" x="76.5473" y="-1292.1864" font-family="Times,serif" font-size="14.00" fill="#000000">user</text>
</g>
<!-- password -->
<g id="node2" class="node">
<title>password</title>
<ellipse fill="none" stroke="#000000" cx="123.5473" cy="-1223.8864" rx="44.393" ry="18"/>
<text text-anchor="middle" x="123.5473" y="-1220.1864" font-family="Times,serif" font-size="14.00" fill="#000000">password</text>
</g>
<!-- user&#45;&gt;password -->
<g id="edge1" class="edge">
<title>user&#45;&gt;password</title>
<path fill="none" stroke="#000000" d="M88.4074,-1277.7178C93.9303,-1269.2571 100.6008,-1259.0385 106.6395,-1249.7878"/>
<polygon fill="#000000" stroke="#000000" points="109.642,-1251.5911 112.1774,-1241.3041 103.7803,-1247.7648 109.642,-1251.5911"/>
</g>
<!-- email -->
<g id="node3" class="node">
<title>email</title>
<ellipse fill="none" stroke="#000000" cx="30.5473" cy="-1223.8864" rx="30.5947" ry="18"/>
<text text-anchor="middle" x="30.5473" y="-1220.1864" font-family="Times,serif" font-size="14.00" fill="#000000">email</text>
</g>
<!-- user&#45;&gt;email -->
<g id="edge2" class="edge">
<title>user&#45;&gt;email</title>
<path fill="none" stroke="#000000" d="M64.9395,-1277.7178C59.4534,-1269.1308 52.8104,-1258.7331 46.8312,-1249.3742"/>
<polygon fill="#000000" stroke="#000000" points="49.6947,-1247.3553 41.3613,-1240.8127 43.7958,-1251.1241 49.6947,-1247.3553"/>
</g>
<!-- clientStretch -->
<g id="node4" class="node">
<title>clientStretch</title>
<polygon fill="none" stroke="#000000" points="141.5473,-1169.8864 87.5473,-1169.8864 87.5473,-1131.8864 141.5473,-1131.8864 141.5473,-1169.8864"/>
<text text-anchor="middle" x="114.5473" y="-1154.6864" font-family="Times,serif" font-size="14.00" fill="#000000">client</text>
<text text-anchor="middle" x="114.5473" y="-1139.6864" font-family="Times,serif" font-size="14.00" fill="#000000">stretch</text>
</g>
<!-- password&#45;&gt;clientStretch -->
<g id="edge3" class="edge">
<title>password&#45;&gt;clientStretch</title>
<path fill="none" stroke="#000000" d="M121.3226,-1205.8415C120.3678,-1198.0971 119.2276,-1188.8486 118.1573,-1180.1676"/>
<polygon fill="#000000" stroke="#000000" points="121.6011,-1179.4958 116.9037,-1169.9993 114.6537,-1180.3524 121.6011,-1179.4958"/>
</g>
<!-- email&#45;&gt;clientStretch -->
<g id="edge4" class="edge">
<title>email&#45;&gt;clientStretch</title>
<path fill="none" stroke="#000000" d="M47.9521,-1208.7608C58.5956,-1199.5112 72.4926,-1187.434 84.8366,-1176.7064"/>
<polygon fill="#000000" stroke="#000000" points="87.4222,-1179.0965 92.6743,-1169.8951 82.8304,-1173.8129 87.4222,-1179.0965"/>
</g>
<!-- serverDatabase -->
<g id="node31" class="node">
<title>serverDatabase</title>
<path fill="none" stroke="#000000" d="M214.0473,-562.0743C214.0473,-564.7078 199.9285,-566.8471 182.5473,-566.8471 165.1661,-566.8471 151.0473,-564.7078 151.0473,-562.0743 151.0473,-562.0743 151.0473,-519.1187 151.0473,-519.1187 151.0473,-516.4852 165.1661,-514.3459 182.5473,-514.3459 199.9285,-514.3459 214.0473,-516.4852 214.0473,-519.1187 214.0473,-519.1187 214.0473,-562.0743 214.0473,-562.0743"/>
<path fill="none" stroke="#000000" d="M214.0473,-562.0743C214.0473,-559.4407 199.9285,-557.3014 182.5473,-557.3014 165.1661,-557.3014 151.0473,-559.4407 151.0473,-562.0743"/>
<text text-anchor="middle" x="182.5473" y="-544.3965" font-family="Times,serif" font-size="14.00" fill="#000000">server</text>
<text text-anchor="middle" x="182.5473" y="-529.3965" font-family="Times,serif" font-size="14.00" fill="#000000">database</text>
</g>
<!-- email&#45;&gt;serverDatabase -->
<g id="edge37" class="edge">
<title>email&#45;&gt;serverDatabase</title>
<path fill="none" stroke="#000000" d="M30.5473,-1205.5212C30.5473,-1174.9861 30.5473,-1111.8449 30.5473,-1058.4098 30.5473,-1058.4098 30.5473,-1058.4098 30.5473,-783.7163 30.5473,-706.7314 21.6505,-677.3167 65.5473,-614.0732 84.1231,-587.3104 115.9215,-568.2632 141.6833,-556.2778"/>
<polygon fill="#000000" stroke="#000000" points="143.1598,-559.4517 150.8657,-552.1805 140.3074,-553.0592 143.1598,-559.4517"/>
</g>
<!-- clientStretchedPassword -->
<g id="node5" class="node">
<title>clientStretchedPassword</title>
<ellipse fill="none" stroke="#000000" cx="114.5473" cy="-1058.4098" rx="48.1667" ry="37.4533"/>
<text text-anchor="middle" x="114.5473" y="-1069.7098" font-family="Times,serif" font-size="14.00" fill="#000000">client</text>
<text text-anchor="middle" x="114.5473" y="-1054.7098" font-family="Times,serif" font-size="14.00" fill="#000000">stretched</text>
<text text-anchor="middle" x="114.5473" y="-1039.7098" font-family="Times,serif" font-size="14.00" fill="#000000">password</text>
</g>
<!-- clientStretch&#45;&gt;clientStretchedPassword -->
<g id="edge5" class="edge">
<title>clientStretch&#45;&gt;clientStretchedPassword</title>
<path fill="none" stroke="#000000" d="M114.5473,-1131.7252C114.5473,-1124.2682 114.5473,-1115.3604 114.5473,-1106.3659"/>
<polygon fill="#000000" stroke="#000000" points="118.0474,-1106.2466 114.5473,-1096.2466 111.0474,-1106.2466 118.0474,-1106.2466"/>
</g>
<!-- authenticationToken -->
<g id="node6" class="node">
<title>authenticationToken</title>
<ellipse fill="none" stroke="#000000" cx="255.5473" cy="-958.0631" rx="65.5227" ry="26.7407"/>
<text text-anchor="middle" x="255.5473" y="-961.8631" font-family="Times,serif" font-size="14.00" fill="#000000">authentication</text>
<text text-anchor="middle" x="255.5473" y="-946.8631" font-family="Times,serif" font-size="14.00" fill="#000000">token</text>
</g>
<!-- clientStretchedPassword&#45;&gt;authenticationToken -->
<g id="edge6" class="edge">
<title>clientStretchedPassword&#45;&gt;authenticationToken</title>
<path fill="none" stroke="#000000" d="M150.1275,-1033.0881C169.6308,-1019.208 193.9041,-1001.9332 214.241,-987.4599"/>
<polygon fill="#000000" stroke="#000000" points="216.282,-990.3032 222.4,-981.6533 212.2232,-984.6001 216.282,-990.3032"/>
</g>
<!-- clientWrappingKey -->
<g id="node28" class="node">
<title>clientWrappingKey</title>
<ellipse fill="none" stroke="#000000" cx="106.5473" cy="-783.7163" rx="48.1667" ry="37.4533"/>
<text text-anchor="middle" x="106.5473" y="-795.0163" font-family="Times,serif" font-size="14.00" fill="#000000">client</text>
<text text-anchor="middle" x="106.5473" y="-780.0163" font-family="Times,serif" font-size="14.00" fill="#000000">wrapping</text>
<text text-anchor="middle" x="106.5473" y="-765.0163" font-family="Times,serif" font-size="14.00" fill="#000000">key</text>
</g>
<!-- clientStretchedPassword&#45;&gt;clientWrappingKey -->
<g id="edge33" class="edge">
<title>clientStretchedPassword&#45;&gt;clientWrappingKey</title>
<path fill="none" stroke="#000000" d="M113.4517,-1020.7908C112.0195,-971.6129 109.5094,-885.4255 107.9426,-831.6278"/>
<polygon fill="#000000" stroke="#000000" points="111.4322,-831.2146 107.6425,-821.3207 104.4351,-831.4184 111.4322,-831.2146"/>
</g>
<!-- serverStretch -->
<g id="node9" class="node">
<title>serverStretch</title>
<polygon fill="none" stroke="#000000" points="361.5473,-895.193 307.5473,-895.193 307.5473,-857.193 361.5473,-857.193 361.5473,-895.193"/>
<text text-anchor="middle" x="334.5473" y="-879.993" font-family="Times,serif" font-size="14.00" fill="#000000">server</text>
<text text-anchor="middle" x="334.5473" y="-864.993" font-family="Times,serif" font-size="14.00" fill="#000000">stretch</text>
</g>
<!-- authenticationToken&#45;&gt;serverStretch -->
<g id="edge8" class="edge">
<title>authenticationToken&#45;&gt;serverStretch</title>
<path fill="none" stroke="#000000" d="M279.6792,-933.0545C288.9167,-923.4814 299.4828,-912.5314 308.8604,-902.8131"/>
<polygon fill="#000000" stroke="#000000" points="311.6531,-904.9594 316.0783,-895.333 306.6158,-900.0987 311.6531,-904.9594"/>
</g>
<!-- random -->
<g id="node7" class="node">
<title>random</title>
<polygon fill="none" stroke="#000000" points="482.0473,-1076.4098 423.0473,-1076.4098 423.0473,-1040.4098 482.0473,-1040.4098 482.0473,-1076.4098"/>
<text text-anchor="middle" x="452.5473" y="-1054.7098" font-family="Times,serif" font-size="14.00" fill="#000000">random</text>
</g>
<!-- authenticationSalt -->
<g id="node8" class="node">
<title>authenticationSalt</title>
<ellipse fill="none" stroke="#000000" cx="405.5473" cy="-958.0631" rx="65.5227" ry="26.7407"/>
<text text-anchor="middle" x="405.5473" y="-961.8631" font-family="Times,serif" font-size="14.00" fill="#000000">authentication</text>
<text text-anchor="middle" x="405.5473" y="-946.8631" font-family="Times,serif" font-size="14.00" fill="#000000">salt</text>
</g>
<!-- random&#45;&gt;authenticationSalt -->
<g id="edge7" class="edge">
<title>random&#45;&gt;authenticationSalt</title>
<path fill="none" stroke="#000000" d="M443.9268,-1040.0046C437.9135,-1027.1662 429.6922,-1009.6133 422.401,-994.0463"/>
<polygon fill="#000000" stroke="#000000" points="425.4206,-992.2415 418.0094,-984.6701 419.0815,-995.2106 425.4206,-992.2415"/>
</g>
<!-- serverWrappedEncryptionKey -->
<g id="node12" class="node">
<title>serverWrappedEncryptionKey</title>
<ellipse fill="none" stroke="#000000" cx="392.5473" cy="-662.1564" rx="52.1524" ry="48.1667"/>
<text text-anchor="middle" x="392.5473" y="-680.9564" font-family="Times,serif" font-size="14.00" fill="#000000">server</text>
<text text-anchor="middle" x="392.5473" y="-665.9564" font-family="Times,serif" font-size="14.00" fill="#000000">wrapped</text>
<text text-anchor="middle" x="392.5473" y="-650.9564" font-family="Times,serif" font-size="14.00" fill="#000000">encryption</text>
<text text-anchor="middle" x="392.5473" y="-635.9564" font-family="Times,serif" font-size="14.00" fill="#000000">key</text>
</g>
<!-- random&#45;&gt;serverWrappedEncryptionKey -->
<g id="edge12" class="edge">
<title>random&#45;&gt;serverWrappedEncryptionKey</title>
<path fill="none" stroke="#000000" d="M461.6151,-1040.227C468.3393,-1025.6768 476.9391,-1004.5345 480.5473,-984.9331 484.8713,-961.4433 484.3068,-954.7798 480.5473,-931.193 468.3245,-854.509 437.6641,-769.9914 415.9834,-716.5258"/>
<polygon fill="#000000" stroke="#000000" points="419.2094,-715.1677 412.1813,-707.2396 412.7314,-717.8202 419.2094,-715.1677"/>
</g>
<!-- userID -->
<g id="node13" class="node">
<title>userID</title>
<ellipse fill="none" stroke="#000000" cx="175.5473" cy="-876.193" rx="34.394" ry="18"/>
<text text-anchor="middle" x="175.5473" y="-872.493" font-family="Times,serif" font-size="14.00" fill="#000000">userID</text>
</g>
<!-- random&#45;&gt;userID -->
<g id="edge13" class="edge">
<title>random&#45;&gt;userID</title>
<path fill="none" stroke="#000000" d="M422.6299,-1054.7486C358.4752,-1046.2333 211.0164,-1022.8861 180.5473,-984.9331 162.5119,-962.4679 164.1828,-928.1995 168.486,-904.1508"/>
<polygon fill="#000000" stroke="#000000" points="171.9428,-904.7153 170.5139,-894.2173 165.0843,-903.315 171.9428,-904.7153"/>
</g>
<!-- keyAccessToken -->
<g id="node17" class="node">
<title>keyAccessToken</title>
<ellipse fill="none" stroke="#000000" cx="612.5473" cy="-662.1564" rx="36.125" ry="37.4533"/>
<text text-anchor="middle" x="612.5473" y="-673.4564" font-family="Times,serif" font-size="14.00" fill="#000000">key</text>
<text text-anchor="middle" x="612.5473" y="-658.4564" font-family="Times,serif" font-size="14.00" fill="#000000">access</text>
<text text-anchor="middle" x="612.5473" y="-643.4564" font-family="Times,serif" font-size="14.00" fill="#000000">token</text>
</g>
<!-- random&#45;&gt;keyAccessToken -->
<g id="edge18" class="edge">
<title>random&#45;&gt;keyAccessToken</title>
<path fill="none" stroke="#000000" d="M464.4659,-1040.191C473.6856,-1025.621 486.3829,-1004.4696 495.5473,-984.9331 540.3598,-889.4023 579.1442,-771.6425 598.8083,-708.0802"/>
<polygon fill="#000000" stroke="#000000" points="602.2047,-708.9429 601.7981,-698.3559 595.5138,-706.8857 602.2047,-708.9429"/>
</g>
<!-- authenticationSalt&#45;&gt;serverStretch -->
<g id="edge9" class="edge">
<title>authenticationSalt&#45;&gt;serverStretch</title>
<path fill="none" stroke="#000000" d="M383.4716,-932.6076C375.3302,-923.2197 366.0839,-912.5579 357.8384,-903.0499"/>
<polygon fill="#000000" stroke="#000000" points="360.3896,-900.6496 351.1936,-895.3879 355.1012,-905.2358 360.3896,-900.6496"/>
</g>
<!-- serverStretchedPassword -->
<g id="node10" class="node">
<title>serverStretchedPassword</title>
<ellipse fill="none" stroke="#000000" cx="334.5473" cy="-783.7163" rx="48.1667" ry="37.4533"/>
<text text-anchor="middle" x="334.5473" y="-795.0163" font-family="Times,serif" font-size="14.00" fill="#000000">server</text>
<text text-anchor="middle" x="334.5473" y="-780.0163" font-family="Times,serif" font-size="14.00" fill="#000000">stretched</text>
<text text-anchor="middle" x="334.5473" y="-765.0163" font-family="Times,serif" font-size="14.00" fill="#000000">password</text>
</g>
<!-- serverStretch&#45;&gt;serverStretchedPassword -->
<g id="edge10" class="edge">
<title>serverStretch&#45;&gt;serverStretchedPassword</title>
<path fill="none" stroke="#000000" d="M334.5473,-857.0318C334.5473,-849.5748 334.5473,-840.667 334.5473,-831.6725"/>
<polygon fill="#000000" stroke="#000000" points="338.0474,-831.5531 334.5473,-821.5532 331.0474,-831.5532 338.0474,-831.5531"/>
</g>
<!-- verificationHash -->
<g id="node11" class="node">
<title>verificationHash</title>
<ellipse fill="none" stroke="#000000" cx="266.5473" cy="-662.1564" rx="55.7232" ry="26.7407"/>
<text text-anchor="middle" x="266.5473" y="-665.9564" font-family="Times,serif" font-size="14.00" fill="#000000">verification</text>
<text text-anchor="middle" x="266.5473" y="-650.9564" font-family="Times,serif" font-size="14.00" fill="#000000">hash</text>
</g>
<!-- serverStretchedPassword&#45;&gt;verificationHash -->
<g id="edge11" class="edge">
<title>serverStretchedPassword&#45;&gt;verificationHash</title>
<path fill="none" stroke="#000000" d="M315.2431,-749.2073C306.0992,-732.8613 295.1993,-713.3762 286.0325,-696.989"/>
<polygon fill="#000000" stroke="#000000" points="289.0768,-695.262 281.1402,-688.2434 282.9677,-698.6794 289.0768,-695.262"/>
</g>
<!-- serverWrappingKey -->
<g id="node14" class="node">
<title>serverWrappingKey</title>
<ellipse fill="none" stroke="#000000" cx="510.5473" cy="-662.1564" rx="48.1667" ry="37.4533"/>
<text text-anchor="middle" x="510.5473" y="-673.4564" font-family="Times,serif" font-size="14.00" fill="#000000">server</text>
<text text-anchor="middle" x="510.5473" y="-658.4564" font-family="Times,serif" font-size="14.00" fill="#000000">wrapping</text>
<text text-anchor="middle" x="510.5473" y="-643.4564" font-family="Times,serif" font-size="14.00" fill="#000000">key</text>
</g>
<!-- serverStretchedPassword&#45;&gt;serverWrappingKey -->
<g id="edge14" class="edge">
<title>serverStretchedPassword&#45;&gt;serverWrappingKey</title>
<path fill="none" stroke="#000000" d="M373.532,-761.6166C397.2317,-747.7034 427.7888,-728.9005 453.5473,-710.2397 459.1826,-706.1571 464.9644,-701.6692 470.5825,-697.1262"/>
<polygon fill="#000000" stroke="#000000" points="473.1678,-699.5312 478.6607,-690.4715 468.717,-694.1284 473.1678,-699.5312"/>
</g>
<!-- verificationHash&#45;&gt;serverDatabase -->
<g id="edge38" class="edge">
<title>verificationHash&#45;&gt;serverDatabase</title>
<path fill="none" stroke="#000000" d="M248.7331,-636.3767C236.3994,-618.5282 219.8448,-594.5712 206.3776,-575.0824"/>
<polygon fill="#000000" stroke="#000000" points="209.1898,-572.9953 200.6254,-566.7581 203.431,-576.9748 209.1898,-572.9953"/>
</g>
<!-- serverWrappingKeyXOR -->
<g id="node15" class="node">
<title>serverWrappingKeyXOR</title>
<polygon fill="none" stroke="#000000" points="425.5473,-558.5965 371.5473,-558.5965 371.5473,-522.5965 425.5473,-522.5965 425.5473,-558.5965"/>
<text text-anchor="middle" x="398.5473" y="-536.8965" font-family="Times,serif" font-size="14.00" fill="#000000">XOR</text>
</g>
<!-- serverWrappedEncryptionKey&#45;&gt;serverWrappingKeyXOR -->
<g id="edge15" class="edge">
<title>serverWrappedEncryptionKey&#45;&gt;serverWrappingKeyXOR</title>
<path fill="none" stroke="#000000" d="M394.9186,-614.1127C395.6785,-598.7174 396.4948,-582.1807 397.1603,-568.6975"/>
<polygon fill="#000000" stroke="#000000" points="400.6604,-568.7794 397.6577,-558.619 393.6689,-568.4342 400.6604,-568.7794"/>
</g>
<!-- serverWrappedEncryptionKey&#45;&gt;serverDatabase -->
<g id="edge39" class="edge">
<title>serverWrappedEncryptionKey&#45;&gt;serverDatabase</title>
<path fill="none" stroke="#000000" d="M353.7275,-629.6089C346.5415,-624.1519 338.9603,-618.7501 331.5473,-614.0732 296.6597,-592.0623 254.2479,-571.7118 223.6083,-558.0365"/>
<polygon fill="#000000" stroke="#000000" points="224.6602,-554.675 214.0985,-553.8374 221.8326,-561.0785 224.6602,-554.675"/>
</g>
<!-- userID&#45;&gt;serverDatabase -->
<g id="edge40" class="edge">
<title>userID&#45;&gt;serverDatabase</title>
<path fill="none" stroke="#000000" d="M175.9236,-858.1499C177.0311,-805.0555 180.2943,-648.6121 181.7867,-577.0607"/>
<polygon fill="#000000" stroke="#000000" points="185.2926,-576.8089 182.002,-566.7381 178.2941,-576.6629 185.2926,-576.8089"/>
</g>
<!-- serverWrappingKey&#45;&gt;serverWrappingKeyXOR -->
<g id="edge16" class="edge">
<title>serverWrappingKey&#45;&gt;serverWrappingKeyXOR</title>
<path fill="none" stroke="#000000" d="M482.285,-631.4817C463.7174,-611.3293 439.7071,-585.2696 422.1606,-566.2253"/>
<polygon fill="#000000" stroke="#000000" points="424.6573,-563.7698 415.3073,-558.787 419.5092,-568.513 424.6573,-563.7698"/>
</g>
<!-- clientWrappedEncryptionKey -->
<g id="node16" class="node">
<title>clientWrappedEncryptionKey</title>
<ellipse fill="none" stroke="#000000" cx="402.5473" cy="-419.0366" rx="52.1524" ry="48.1667"/>
<text text-anchor="middle" x="402.5473" y="-437.8366" font-family="Times,serif" font-size="14.00" fill="#000000">client</text>
<text text-anchor="middle" x="402.5473" y="-422.8366" font-family="Times,serif" font-size="14.00" fill="#000000">wrapped</text>
<text text-anchor="middle" x="402.5473" y="-407.8366" font-family="Times,serif" font-size="14.00" fill="#000000">encryption</text>
<text text-anchor="middle" x="402.5473" y="-392.8366" font-family="Times,serif" font-size="14.00" fill="#000000">key</text>
</g>
<!-- serverWrappingKeyXOR&#45;&gt;clientWrappedEncryptionKey -->
<g id="edge17" class="edge">
<title>serverWrappingKeyXOR&#45;&gt;clientWrappedEncryptionKey</title>
<path fill="none" stroke="#000000" d="M399.1461,-522.3978C399.5432,-510.331 400.0883,-493.7643 400.6259,-477.4281"/>
<polygon fill="#000000" stroke="#000000" points="404.1273,-477.4383 400.9582,-467.3286 397.1311,-477.208 404.1273,-477.4383"/>
</g>
<!-- serverEncryptionXOR -->
<g id="node22" class="node">
<title>serverEncryptionXOR</title>
<polygon fill="none" stroke="#000000" points="504.5473,-315.4767 450.5473,-315.4767 450.5473,-279.4767 504.5473,-279.4767 504.5473,-315.4767"/>
<text text-anchor="middle" x="477.5473" y="-293.7767" font-family="Times,serif" font-size="14.00" fill="#000000">XOR</text>
</g>
<!-- clientWrappedEncryptionKey&#45;&gt;serverEncryptionXOR -->
<g id="edge23" class="edge">
<title>clientWrappedEncryptionKey&#45;&gt;serverEncryptionXOR</title>
<path fill="none" stroke="#000000" d="M428.358,-377.2026C439.1968,-359.635 451.4832,-339.7212 461.0654,-324.1905"/>
<polygon fill="#000000" stroke="#000000" points="464.0912,-325.9519 466.3633,-315.6036 458.1338,-322.2763 464.0912,-325.9519"/>
</g>
<!-- clientWrappingKeyXOR -->
<g id="node29" class="node">
<title>clientWrappingKeyXOR</title>
<polygon fill="none" stroke="#000000" points="200.5473,-315.4767 146.5473,-315.4767 146.5473,-279.4767 200.5473,-279.4767 200.5473,-315.4767"/>
<text text-anchor="middle" x="173.5473" y="-293.7767" font-family="Times,serif" font-size="14.00" fill="#000000">XOR</text>
</g>
<!-- clientWrappedEncryptionKey&#45;&gt;clientWrappingKeyXOR -->
<g id="edge34" class="edge">
<title>clientWrappedEncryptionKey&#45;&gt;clientWrappingKeyXOR</title>
<path fill="none" stroke="#000000" d="M357.0305,-394.8749C313.7088,-371.8785 249.3825,-337.7322 209.5321,-316.5784"/>
<polygon fill="#000000" stroke="#000000" points="211.1604,-313.4803 200.6867,-311.8831 207.8784,-319.6632 211.1604,-313.4803"/>
</g>
<!-- tokenID -->
<g id="node18" class="node">
<title>tokenID</title>
<ellipse fill="none" stroke="#000000" cx="483.5473" cy="-540.5965" rx="39.7935" ry="18"/>
<text text-anchor="middle" x="483.5473" y="-536.8965" font-family="Times,serif" font-size="14.00" fill="#000000">tokenID</text>
</g>
<!-- keyAccessToken&#45;&gt;tokenID -->
<g id="edge19" class="edge">
<title>keyAccessToken&#45;&gt;tokenID</title>
<path fill="none" stroke="#000000" d="M587.7814,-634.7449C581.3263,-627.8656 574.2871,-620.5902 567.5473,-614.0732 549.1136,-596.2489 527.2897,-577.2167 510.5073,-562.9892"/>
<polygon fill="#000000" stroke="#000000" points="512.6124,-560.1861 502.7106,-556.417 508.1008,-565.5383 512.6124,-560.1861"/>
</g>
<!-- keyRequestToken -->
<g id="node19" class="node">
<title>keyRequestToken</title>
<ellipse fill="none" stroke="#000000" cx="729.5473" cy="-540.5965" rx="39.6962" ry="37.4533"/>
<text text-anchor="middle" x="729.5473" y="-551.8965" font-family="Times,serif" font-size="14.00" fill="#000000">key</text>
<text text-anchor="middle" x="729.5473" y="-536.8965" font-family="Times,serif" font-size="14.00" fill="#000000">request</text>
<text text-anchor="middle" x="729.5473" y="-521.8965" font-family="Times,serif" font-size="14.00" fill="#000000">token</text>
</g>
<!-- keyAccessToken&#45;&gt;keyRequestToken -->
<g id="edge20" class="edge">
<title>keyAccessToken&#45;&gt;keyRequestToken</title>
<path fill="none" stroke="#000000" d="M638.2234,-635.4796C655.0886,-617.9571 677.3352,-594.8435 695.6487,-575.8162"/>
<polygon fill="#000000" stroke="#000000" points="698.2991,-578.1097 702.712,-568.4777 693.2556,-573.2555 698.2991,-578.1097"/>
</g>
<!-- requestAuthenticationKey -->
<g id="node20" class="node">
<title>requestAuthenticationKey</title>
<ellipse fill="none" stroke="#000000" cx="606.5473" cy="-540.5965" rx="65.5227" ry="37.4533"/>
<text text-anchor="middle" x="606.5473" y="-551.8965" font-family="Times,serif" font-size="14.00" fill="#000000">request</text>
<text text-anchor="middle" x="606.5473" y="-536.8965" font-family="Times,serif" font-size="14.00" fill="#000000">authentication</text>
<text text-anchor="middle" x="606.5473" y="-521.8965" font-family="Times,serif" font-size="14.00" fill="#000000">key</text>
</g>
<!-- keyAccessToken&#45;&gt;requestAuthenticationKey -->
<g id="edge21" class="edge">
<title>keyAccessToken&#45;&gt;requestAuthenticationKey</title>
<path fill="none" stroke="#000000" d="M610.6981,-624.6925C610.1335,-613.2541 609.5049,-600.517 608.911,-588.4862"/>
<polygon fill="#000000" stroke="#000000" points="612.3895,-587.9612 608.4007,-578.1459 605.398,-588.3063 612.3895,-587.9612"/>
</g>
<!-- responseEncryptionKey -->
<g id="node21" class="node">
<title>responseEncryptionKey</title>
<ellipse fill="none" stroke="#000000" cx="532.5473" cy="-419.0366" rx="52.1524" ry="37.4533"/>
<text text-anchor="middle" x="532.5473" y="-430.3366" font-family="Times,serif" font-size="14.00" fill="#000000">response</text>
<text text-anchor="middle" x="532.5473" y="-415.3366" font-family="Times,serif" font-size="14.00" fill="#000000">encryption</text>
<text text-anchor="middle" x="532.5473" y="-400.3366" font-family="Times,serif" font-size="14.00" fill="#000000">key</text>
</g>
<!-- keyRequestToken&#45;&gt;responseEncryptionKey -->
<g id="edge22" class="edge">
<title>keyRequestToken&#45;&gt;responseEncryptionKey</title>
<path fill="none" stroke="#000000" d="M699.3252,-515.9055C693.5359,-511.4915 687.4399,-507.0511 681.5473,-503.1198 650.3333,-482.2955 613.6423,-461.5482 584.4808,-445.8729"/>
<polygon fill="#000000" stroke="#000000" points="585.7637,-442.5903 575.2938,-440.9681 582.4669,-448.7654 585.7637,-442.5903"/>
</g>
<!-- responseAuthenticationKey -->
<g id="node24" class="node">
<title>responseAuthenticationKey</title>
<ellipse fill="none" stroke="#000000" cx="697.5473" cy="-297.4767" rx="65.5227" ry="37.4533"/>
<text text-anchor="middle" x="697.5473" y="-308.7767" font-family="Times,serif" font-size="14.00" fill="#000000">response</text>
<text text-anchor="middle" x="697.5473" y="-293.7767" font-family="Times,serif" font-size="14.00" fill="#000000">authentication</text>
<text text-anchor="middle" x="697.5473" y="-278.7767" font-family="Times,serif" font-size="14.00" fill="#000000">key</text>
</g>
<!-- keyRequestToken&#45;&gt;responseAuthenticationKey -->
<g id="edge26" class="edge">
<title>keyRequestToken&#45;&gt;responseAuthenticationKey</title>
<path fill="none" stroke="#000000" d="M724.6523,-503.4072C719.0693,-460.9901 709.9266,-391.5283 703.8239,-345.1634"/>
<polygon fill="#000000" stroke="#000000" points="707.2694,-344.5194 702.4943,-335.0617 700.3293,-345.4329 707.2694,-344.5194"/>
</g>
<!-- responseEncryptionKey&#45;&gt;serverEncryptionXOR -->
<g id="edge24" class="edge">
<title>responseEncryptionKey&#45;&gt;serverEncryptionXOR</title>
<path fill="none" stroke="#000000" d="M516.343,-383.2221C507.9197,-364.6052 497.7852,-342.206 489.9869,-324.9705"/>
<polygon fill="#000000" stroke="#000000" points="493.0071,-323.1549 485.696,-315.4868 486.6295,-326.0405 493.0071,-323.1549"/>
</g>
<!-- clientEncryptionXOR -->
<g id="node27" class="node">
<title>clientEncryptionXOR</title>
<polygon fill="none" stroke="#000000" points="559.5473,-108 505.5473,-108 505.5473,-72 559.5473,-72 559.5473,-108"/>
<text text-anchor="middle" x="532.5473" y="-86.3" font-family="Times,serif" font-size="14.00" fill="#000000">XOR</text>
</g>
<!-- responseEncryptionKey&#45;&gt;clientEncryptionXOR -->
<g id="edge30" class="edge">
<title>responseEncryptionKey&#45;&gt;clientEncryptionXOR</title>
<path fill="none" stroke="#000000" d="M532.5473,-381.2919C532.5473,-314.7076 532.5473,-177.8272 532.5473,-118.4839"/>
<polygon fill="#000000" stroke="#000000" points="536.0474,-118.3399 532.5473,-108.34 529.0474,-118.34 536.0474,-118.3399"/>
</g>
<!-- ciphertext -->
<g id="node23" class="node">
<title>ciphertext</title>
<ellipse fill="none" stroke="#000000" cx="606.5473" cy="-184" rx="46.2923" ry="18"/>
<text text-anchor="middle" x="606.5473" y="-180.3" font-family="Times,serif" font-size="14.00" fill="#000000">ciphertext</text>
</g>
<!-- serverEncryptionXOR&#45;&gt;ciphertext -->
<g id="edge25" class="edge">
<title>serverEncryptionXOR&#45;&gt;ciphertext</title>
<path fill="none" stroke="#000000" d="M498.2734,-279.2447C520.4132,-259.7691 555.5815,-228.8328 579.7966,-207.5317"/>
<polygon fill="#000000" stroke="#000000" points="582.3574,-209.9405 587.5541,-200.7077 577.7339,-204.6846 582.3574,-209.9405"/>
</g>
<!-- authenticate -->
<g id="node25" class="node">
<title>authenticate</title>
<polygon fill="none" stroke="#000000" points="697.5473,-108 615.5473,-108 615.5473,-72 697.5473,-72 697.5473,-108"/>
<text text-anchor="middle" x="656.5473" y="-86.3" font-family="Times,serif" font-size="14.00" fill="#000000">authenticate</text>
</g>
<!-- ciphertext&#45;&gt;authenticate -->
<g id="edge27" class="edge">
<title>ciphertext&#45;&gt;authenticate</title>
<path fill="none" stroke="#000000" d="M615.9519,-166.3193C623.261,-152.5783 633.5312,-133.2702 641.9126,-117.5132"/>
<polygon fill="#000000" stroke="#000000" points="645.2377,-118.715 646.8438,-108.2426 639.0576,-115.4276 645.2377,-118.715"/>
</g>
<!-- ciphertext&#45;&gt;clientEncryptionXOR -->
<g id="edge31" class="edge">
<title>ciphertext&#45;&gt;clientEncryptionXOR</title>
<path fill="none" stroke="#000000" d="M592.9745,-166.759C581.8177,-152.5867 565.833,-132.2819 553.1062,-116.1153"/>
<polygon fill="#000000" stroke="#000000" points="555.7263,-113.7853 546.7906,-108.0928 550.2261,-118.1152 555.7263,-113.7853"/>
</g>
<!-- responseAuthenticationKey&#45;&gt;authenticate -->
<g id="edge28" class="edge">
<title>responseAuthenticationKey&#45;&gt;authenticate</title>
<path fill="none" stroke="#000000" d="M690.1225,-259.9042C682.0573,-219.0912 669.3581,-154.8279 662.1095,-118.1469"/>
<polygon fill="#000000" stroke="#000000" points="665.5042,-117.2714 660.1319,-108.1397 658.637,-118.6285 665.5042,-117.2714"/>
</g>
<!-- mac -->
<g id="node26" class="node">
<title>mac</title>
<ellipse fill="none" stroke="#000000" cx="656.5473" cy="-18" rx="27" ry="18"/>
<text text-anchor="middle" x="656.5473" y="-14.3" font-family="Times,serif" font-size="14.00" fill="#000000">mac</text>
</g>
<!-- authenticate&#45;&gt;mac -->
<g id="edge29" class="edge">
<title>authenticate&#45;&gt;mac</title>
<path fill="none" stroke="#000000" d="M656.5473,-71.8314C656.5473,-64.131 656.5473,-54.9743 656.5473,-46.4166"/>
<polygon fill="#000000" stroke="#000000" points="660.0474,-46.4132 656.5473,-36.4133 653.0474,-46.4133 660.0474,-46.4132"/>
</g>
<!-- clientEncryptionXOR&#45;&gt;clientWrappedEncryptionKey -->
<g id="edge32" class="edge">
<title>clientEncryptionXOR&#45;&gt;clientWrappedEncryptionKey</title>
<path fill="none" stroke="#000000" d="M520.8546,-108.1391C501.7715,-138.4616 463.8302,-201.8577 441.5473,-260 429.025,-292.6742 419.5285,-330.6936 413.043,-361.3647"/>
<polygon fill="#000000" stroke="#000000" points="409.5518,-360.9652 410.959,-371.4662 416.4074,-362.3797 409.5518,-360.9652"/>
</g>
<!-- clientWrappingKey&#45;&gt;clientWrappingKeyXOR -->
<g id="edge35" class="edge">
<title>clientWrappingKey&#45;&gt;clientWrappingKeyXOR</title>
<path fill="none" stroke="#000000" d="M83.3076,-750.4987C76.1444,-738.3953 69.188,-724.2358 65.5473,-710.2397 54.7876,-668.8755 58.5534,-656.2377 65.5473,-614.0732 83.9766,-502.967 136.4614,-378.5119 160.8291,-324.6923"/>
<polygon fill="#000000" stroke="#000000" points="164.064,-326.0342 165.0373,-315.4841 157.6973,-323.1245 164.064,-326.0342"/>
</g>
<!-- encryptionKey -->
<g id="node30" class="node">
<title>encryptionKey</title>
<polygon fill="none" stroke="#000000" points="220.8363,-169.0883 220.8363,-198.9117 193.135,-220 153.9596,-220 126.2583,-198.9117 126.2583,-169.0883 153.9596,-148 193.135,-148 220.8363,-169.0883"/>
<polygon fill="none" stroke="#000000" points="224.848,-167.1098 224.848,-200.8902 194.4915,-224 152.6031,-224 122.2465,-200.8902 122.2465,-167.1098 152.6031,-144 194.4915,-144 224.848,-167.1098"/>
<text text-anchor="middle" x="173.5473" y="-187.8" font-family="Times,serif" font-size="14.00" fill="#000000">encryption</text>
<text text-anchor="middle" x="173.5473" y="-172.8" font-family="Times,serif" font-size="14.00" fill="#000000">key</text>
</g>
<!-- clientWrappingKeyXOR&#45;&gt;encryptionKey -->
<g id="edge36" class="edge">
<title>clientWrappingKeyXOR&#45;&gt;encryptionKey</title>
<path fill="none" stroke="#000000" d="M173.5473,-279.2447C173.5473,-267.1159 173.5473,-250.5421 173.5473,-234.6188"/>
<polygon fill="#000000" stroke="#000000" points="177.0474,-234.3021 173.5473,-224.3022 170.0474,-234.3022 177.0474,-234.3021"/>
</g>
<!-- authSalt -->
<g id="node32" class="node">
<title>authSalt</title>
<ellipse fill="none" stroke="#000000" cx="114.5473" cy="-662.1564" rx="39.7935" ry="18"/>
<text text-anchor="middle" x="114.5473" y="-658.4564" font-family="Times,serif" font-size="14.00" fill="#000000">authSalt</text>
</g>
<!-- authSalt&#45;&gt;serverDatabase -->
<g id="edge41" class="edge">
<title>authSalt&#45;&gt;serverDatabase</title>
<path fill="none" stroke="#000000" d="M124.4351,-644.4806C134.4712,-626.5395 150.2823,-598.2748 162.8801,-575.7546"/>
<polygon fill="#000000" stroke="#000000" points="166.0531,-577.2514 167.8806,-566.8154 159.944,-573.834 166.0531,-577.2514"/>
</g>
</g>
</svg>
